<svg xmlns="http://www.w3.org/2000/svg" width="26.414" height="30.841" viewBox="0 0 26.414 30.841">
  <defs>
    <style>
      .cls-1, .cls-7 {
        fill: #9c824a;
      }

      .cls-1 {
        stroke: #9c824a;
      }

      .cls-1, .cls-11, .cls-2, .cls-3, .cls-4, .cls-5, .cls-8, .cls-9 {
        stroke-miterlimit: 282;
      }

      .cls-1, .cls-2, .cls-3, .cls-4, .cls-5 {
        stroke-width: 0.793px;
      }

      .cls-2 {
        fill: #023474;
        stroke: #023474;
      }

      .cls-11, .cls-3, .cls-6 {
        fill: #fff;
      }

      .cls-11, .cls-3 {
        stroke: #fff;
      }

      .cls-4, .cls-8 {
        fill: #ef0107;
        stroke: #ef0107;
      }

      .cls-10, .cls-5, .cls-9 {
        fill: #db0007;
      }

      .cls-5, .cls-9 {
        stroke: #db0007;
      }

      .cls-11, .cls-8, .cls-9 {
        stroke-width: 0.312px;
      }
    </style>
  </defs>
  <g id="arsenal" transform="translate(0.063 0)">
    <path id="Path_70" data-name="Path 70" class="cls-1" d="M13.14.4C10.1.4,4.488,1.183,1.631,2.844-2.131,16.18,2.985,25.249,13.14,30.4,23.3,25.249,28.411,16.135,24.65,2.845,21.79,1.183,16.183.4,13.14.4Z" transform="translate(0 0)"/>
    <path id="Path_71" data-name="Path 71" class="cls-2" d="M22.847,11.228a27.032,27.032,0,0,0-10.762,2.181C8.8,25.05,12.61,34.38,22.847,39.465,33.083,34.38,36.887,25.05,33.606,13.409a27.02,27.02,0,0,0-10.759-2.181Z" transform="translate(-9.706 -9.975)"/>
    <path id="Path_72" data-name="Path 72" class="cls-3" d="M41.533,11.086a25.953,25.953,0,0,0-9.051,1.532C29.493,24.537,31.7,33.24,41.55,39.326l-.017-28.24Zm.017,28.24C51.4,33.24,53.6,24.537,50.615,12.618a25.937,25.937,0,0,0-9.048-1.532l-.017,28.24Z" transform="translate(-28.407 -9.844)"/>
    <path id="Path_73" data-name="Path 73" class="cls-4" d="M48.034,11.051a26.586,26.586,0,0,0-8.481,1.31c-3.1,12.493-.61,20.929,8.484,26.694l0-28Z" transform="translate(-34.891 -9.812)"/>
    <path id="Path_74" data-name="Path 74" class="cls-5" d="M161.471,11.051a26.616,26.616,0,0,1,8.484,1.31c3.1,12.493.61,20.929-8.487,26.694l0-28Z" transform="translate(-148.322 -9.812)"/>
    <path id="Path_75" data-name="Path 75" class="cls-6" d="M62.27,224.874a10.382,10.382,0,0,1-3.59,1.555l-.736-1.144a13.827,13.827,0,0,0,3.45-2.5,3.278,3.278,0,0,0,.876,2.091Z" transform="translate(-52.992 -204.784)"/>
    <path id="Path_76" data-name="Path 76" class="cls-7" d="M47.481,227.573a12.024,12.024,0,0,1-4.995,1.751l-.407-.618a12.383,12.383,0,0,0,4.644-2.94,4.909,4.909,0,0,0,.758,1.808Z" transform="translate(-38.383 -207.53)"/>
    <path id="Path_77" data-name="Path 77" class="cls-6" d="M47.936,172.121a.869.869,0,0,1-1.739,0h0a.869.869,0,0,1,1.739,0Z" transform="translate(-42.175 -157.332)"/>
    <path id="Path_78" data-name="Path 78" class="cls-6" d="M66.993,160.6v3.278h2.582A4.953,4.953,0,0,1,71.78,160.6H66.993" transform="translate(-61.325 -147.52)"/>
    <path id="Path_79" data-name="Path 79" class="cls-6" d="M55.986,163.875c-.576.008-1.051-.714-1.059-1.619s.455-1.647,1.034-1.659h.02" transform="translate(-50.214 -147.52)"/>
    <path id="Path_80" data-name="Path 80" class="cls-7" d="M49.563,174.442a.6.6,0,1,1-1.2,0h0a.6.6,0,1,1,1.2,0Z" transform="translate(-44.168 -159.653)"/>
    <path id="Path_81" data-name="Path 81" class="cls-7" d="M67.881,162.764v2.946h2.562a4.745,4.745,0,0,1,1.941-2.946h-4.5" transform="translate(-62.143 -149.516)"/>
    <path id="Path_82" data-name="Path 82" class="cls-7" d="M57.518,165.71c-.542.011-.986-.641-.994-1.453s.43-1.481.972-1.493h.017" transform="translate(-51.684 -149.516)"/>
    <path id="Path_83" data-name="Path 83" class="cls-6" d="M108.225,154.112a4.947,4.947,0,1,1-9.894,0h0a4.947,4.947,0,1,1,9.894,0Z" transform="translate(-90.183 -136.99)"/>
    <path id="Path_84" data-name="Path 84" class="cls-7" d="M111.006,157.122a4.687,4.687,0,1,1-9.374,0h0a4.687,4.687,0,1,1,9.374,0Z" transform="translate(-93.222 -140)"/>
    <path id="Path_85" data-name="Path 85" class="cls-6" d="M119.28,166.179a3.909,3.909,0,1,1-7.818,0h0a3.909,3.909,0,1,1,7.818,0Z" transform="translate(-102.274 -149.057)"/>
    <path id="Path_86" data-name="Path 86" class="cls-7" d="M122.028,169.222a3.651,3.651,0,1,1-7.3,0h0a3.651,3.651,0,1,1,7.3,0Z" transform="translate(-105.281 -152.1)"/>
    <path id="Path_87" data-name="Path 87" class="cls-6" d="M144.637,193.977a1.523,1.523,0,1,1-3.045,0v0a1.523,1.523,0,0,1,3.045,0v0Z" transform="translate(-130.019 -176.854)"/>
    <path id="Path_88" data-name="Path 88" class="cls-7" d="M146.55,196.07a1.343,1.343,0,0,1-2.686,0v0a1.343,1.343,0,0,1,2.686,0v0Z" transform="translate(-132.111 -178.948)"/>
    <path id="Path_89" data-name="Path 89" class="cls-6" d="M153.513,203.657a.69.69,0,1,1-1.379,0h0a.69.69,0,1,1,1.379,0Z" transform="translate(-139.727 -186.535)"/>
    <path id="Path_90" data-name="Path 90" class="cls-7" d="M155.512,205.881a.5.5,0,1,1-1,0h0a.5.5,0,1,1,1,0Z" transform="translate(-141.917 -188.759)"/>
    <rect id="Rectangle_1594" data-name="Rectangle 1594" class="cls-6" width="1.039" height="2.426" transform="translate(12.57 13.386)"/>
    <rect id="Rectangle_1595" data-name="Rectangle 1595" class="cls-7" width="0.716" height="3.084" transform="translate(12.733 13.037)"/>
    <path id="Path_91" data-name="Path 91" class="cls-6" d="M173.791,181.8l.567.871-2.034,1.321-.565-.872Z" transform="translate(-157.799 -167.043)"/>
    <path id="Path_92" data-name="Path 92" class="cls-7" d="M172.144,181.124l.39.6-2.585,1.681-.39-.6Z" transform="translate(-155.773 -166.422)"/>
    <path id="Path_93" data-name="Path 93" class="cls-6" d="M118.585,214.187l.556.877-2.048,1.3-.556-.88Z" transform="translate(-106.947 -196.868)"/>
    <path id="Path_94" data-name="Path 94" class="cls-7" d="M116.547,213.548l.385.607-2.6,1.65-.385-.607Z" transform="translate(-104.562 -196.28)"/>
    <rect id="Rectangle_1596" data-name="Rectangle 1596" class="cls-6" width="1.039" height="2.426" transform="translate(12.57 18.514)"/>
    <rect id="Rectangle_1597" data-name="Rectangle 1597" class="cls-7" width="0.716" height="3.081" transform="translate(12.733 18.168)"/>
    <path id="Path_95" data-name="Path 95" class="cls-8" d="M127.069,226.013a1.881,1.881,0,0,0,.489.306l-.006,2.164a3.436,3.436,0,0,1-2.284-1.3l1.8-1.172" transform="translate(-114.987 -207.758)"/>
    <path id="Path_96" data-name="Path 96" class="cls-9" d="M167.918,226.12a1.921,1.921,0,0,1-.489.3l0,2.165a3.437,3.437,0,0,0,2.284-1.3l-1.8-1.169" transform="translate(-153.811 -207.857)"/>
    <path id="Path_97" data-name="Path 97" class="cls-10" d="M179.749,211.64l2.146-.259a3.532,3.532,0,0,1-.3,1.462l-1.857-1.2" transform="translate(-165.15 -194.284)"/>
    <path id="Path_98" data-name="Path 98" class="cls-11" d="M179.851,209.441c.008-.034.006-.065.02-.163l2.118-.275a.92.92,0,0,1,0,.18l-2.138.259Z" transform="translate(-165.25 -192.095)"/>
    <path id="Path_99" data-name="Path 99" class="cls-6" d="M219.458,191.992h2.778c-.087.329-.171.663-.57.812a15.128,15.128,0,0,1-1.961.469,5.641,5.641,0,0,0-.247-1.282Z" transform="translate(-201.722 -176.43)"/>
    <path id="Path_100" data-name="Path 100" class="cls-6" d="M195.006,159.994l7.259.008-.256,2.654-4.958.259a5.23,5.23,0,0,0-2.045-2.921Z" transform="translate(-179.205 -146.965)"/>
    <path id="Path_101" data-name="Path 101" class="cls-7" d="M198.27,162.373l9.268.008-.354,2.162-7.192.354a4.928,4.928,0,0,0-1.722-2.524Z" transform="translate(-182.211 -149.156)"/>
    <path id="Path_102" data-name="Path 102" class="cls-7" d="M219.458,191.992h2.559c-.084.292-.143.559-.52.691a12.484,12.484,0,0,1-1.8.382,7.043,7.043,0,0,0-.236-1.074Z" transform="translate(-201.722 -176.43)"/>
    <path id="Path_103" data-name="Path 103" class="cls-7" d="M52.854,65.453c0,.118-.025.441-.039.531h1.438a7.533,7.533,0,0,1-.138-1.324c0,.028-.025-.824-.025-.824a.27.27,0,0,1,.062-.177.18.18,0,0,1,.163-.059c.062-.028.174-.028.188.205l.037.883a8.341,8.341,0,0,1-.037,1.3h1.385c-.011-.118-.051-.413-.062-.5a1.07,1.07,0,0,0,1.051.587,1.221,1.221,0,0,0,.7-.233.7.7,0,0,0,.073.146h2.573A7.841,7.841,0,0,1,60,64.661l-.362-2.884-1.323-.236a9.459,9.459,0,0,1,.236,1.324l.2,1.855a9.394,9.394,0,0,1,.062,1.06v.028l-.051-.118a3.214,3.214,0,0,1-.188-.97l-.048-.59c-.076-.942-.587-1.352-1.714-1.352a3.972,3.972,0,0,0-.949.118l.076,1.057.3-.174a1.206,1.206,0,0,1,.66-.208.328.328,0,0,1,.34.177,2.736,2.736,0,0,0-.714.205,1.369,1.369,0,0,0-.761.736v-.028l-.039-.973a.992.992,0,0,0-1.037-1.029,1.338,1.338,0,0,0-.747.236c-.014-.031-.025-.059-.039-.09l-.051-.118L52.7,62.628a8.823,8.823,0,0,1,.138,1,1.474,1.474,0,0,0-.525-.852,1.607,1.607,0,0,0-.848-.236,1.642,1.642,0,0,0-1.149.472,1.665,1.665,0,0,0-.464,1.175,1.112,1.112,0,0,0-.435-.292l-.525-.267h-.025c-.124-.059-.138-.087-.138-.115.014-.059.138-.118.3-.118a1.776,1.776,0,0,1,.787.264l.025-.942a1.911,1.911,0,0,0-.826-.146,1.955,1.955,0,0,0-.9.205c-.087.059-.163.118-.236.177l.011-.267a1.041,1.041,0,0,0-1.023.326c-.014-.031-.039-.177-.065-.236l-1.236.059a4.776,4.776,0,0,1,.076,1.293l-.025.472v.059c-.014.236-.025.5-.051.736-.1-.326-.211-.767-.3-1.119l-.612-2.766-1.747.264a1.258,1.258,0,0,1,.051.205,2.124,2.124,0,0,1-.152.855c-.287.793-.685,2-1.073,2.853-.051.118-.152.3-.152.3h1.362a5.18,5.18,0,0,1,.2-.824c.188,0,.674,0,.9-.031a4.748,4.748,0,0,1,.115.649l.022.205h2.725a7.343,7.343,0,0,1-.014-1.355,1.144,1.144,0,0,1,.264-.793.451.451,0,0,1,.362-.177.937.937,0,0,0,.624.911l.537.267c.188.118.188.146.188.205-.011.087-.163.118-.3.118a1.615,1.615,0,0,1-1.1-.647l-.025,1.234a2.541,2.541,0,0,0,1.138.264,1.474,1.474,0,0,0,1.461-.852,1.678,1.678,0,0,0,1.525.852,1.615,1.615,0,0,0,1.287-.559Zm-9.383-1.206c.076-.205.138-.382.25-.706.076.323.112.529.149.677a1.791,1.791,0,0,1-.4.028Zm7.647-.323c0-.41.149-.587.3-.587.051,0,.163-.031.213.177a.782.782,0,0,1,.036.174c0,.118-.062.149-.138.149v.028a3.326,3.326,0,0,0-.41.149c0-.031,0-.059,0-.09Zm1.424.855a1.1,1.1,0,0,1-.764.382.581.581,0,0,1-.486-.382c.261-.09,1.273-.472,1.562-.59,0,.236.011.5.011.5v.5l-.323-.41Zm4.658.411a.284.284,0,0,1-.3-.292c.011-.118.048-.3.424-.413.011.146.025.264.025.264v.118c.011.09.011.177.022.264a1.388,1.388,0,0,1-.174.059" transform="translate(-37.927 -56.278)"/>
    <path id="Path_104" data-name="Path 104" class="cls-6" d="M120.283,77.583a2.323,2.323,0,0,0-.612-.087,1.912,1.912,0,0,0-.787.177.914.914,0,0,0-.486.677.7.7,0,0,0,.5.734c.211.118.413.236.537.3.163.087.312.177.3.382s-.2.354-.514.354a1.56,1.56,0,0,1-.9-.413l-.011.618a2.168,2.168,0,0,0,.924.177c.573,0,1.287-.264,1.3-.914a.829.829,0,0,0-.548-.793c-.213-.09-.427-.208-.525-.236-.1-.059-.3-.118-.287-.354.022-.205.261-.3.511-.3a1.254,1.254,0,0,1,.587.149" transform="translate(-108.581 -70.997)"/>
    <path id="Path_105" data-name="Path 105" class="cls-6" d="M48.58,64.853l-1.326.177a2.448,2.448,0,0,1-.163.942c-.272.793-.722,2.117-1.073,2.884h.826a4.062,4.062,0,0,1,.236-.824L48.3,68a6.984,6.984,0,0,1,.149.855h1.112a12.049,12.049,0,0,1-.424-1.473l-.562-2.53Zm-1.326,2.676.6-1.734.362,1.706" transform="translate(-42.01 -59.355)"/>
    <path id="Path_106" data-name="Path 106" class="cls-6" d="M95.937,78.6l-.025.59a.75.75,0,0,0-.649.233,1.319,1.319,0,0,0-.312.914,9.749,9.749,0,0,0-.014,1.178H94a8.363,8.363,0,0,0,.1-1.15l.025-.469a4.768,4.768,0,0,0-.036-1.119l.826-.028a1.6,1.6,0,0,1,.048.528c.362-.56.714-.678.975-.678" transform="translate(-86.195 -72.011)"/>
    <path id="Path_107" data-name="Path 107" class="cls-6" d="M257.4,65.357l-.851-.149a10.187,10.187,0,0,1,.163,1.032l.2,1.853a8.147,8.147,0,0,1,.065,1.091h.924a7.139,7.139,0,0,1-.163-1.091" transform="translate(-235.872 -59.682)"/>
    <path id="Path_108" data-name="Path 108" class="cls-6" d="M188.06,81.512c-.048-.354-.073-.708-.087-1.091l-.036-.97a.771.771,0,0,0-.826-.824,1.059,1.059,0,0,0-.874.441,2.134,2.134,0,0,0-.1-.441l-.747-.031a7.524,7.524,0,0,1,.1,1.088l.014.736a10.69,10.69,0,0,1-.025,1.091h.935c-.048-.354-.073-.708-.087-1.091L186.3,79.6a.465.465,0,0,1,.438-.5c.261,0,.388.177.4.441l.039.883a10.728,10.728,0,0,1-.014,1.091" transform="translate(-170.349 -72.011)"/>
    <path id="Path_109" data-name="Path 109" class="cls-6" d="M225.529,82.885a3.62,3.62,0,0,1-.2-1.032l-.051-.588c-.051-.706-.348-1.178-1.5-1.178a3.43,3.43,0,0,0-.722.087l.036.531a1.434,1.434,0,0,1,.775-.264.549.549,0,0,1,.6.587,2.548,2.548,0,0,0-.888.236.947.947,0,0,0-.674.911.827.827,0,0,0,.938.767,1.016,1.016,0,0,0,.8-.354,1.643,1.643,0,0,0,.1.3Zm-1.363-.382a.465.465,0,0,1-.511-.472c0-.323.2-.588.837-.678l.037.5c.014.177.014.3.039.441a.634.634,0,0,1-.4.208" transform="translate(-204.894 -73.384)"/>
    <path id="Path_110" data-name="Path 110" class="cls-6" d="M150.879,77.313a1.241,1.241,0,0,0-.725-.208,1.41,1.41,0,0,0-1.4,1.56,1.431,1.431,0,0,0,1.5,1.5,1.467,1.467,0,0,0,1.124-.469l-.188-.267a1.064,1.064,0,0,1-.725.3.892.892,0,0,1-.773-.706l1.7-.618a1.448,1.448,0,0,0-.511-1.088Zm-.587,1.088-.674.264a3.085,3.085,0,0,1-.025-.382c0-.677.374-.8.5-.8a.394.394,0,0,1,.438.326c.073.264.048.5-.239.588" transform="translate(-136.615 -70.637)"/>
    <path id="Path_111" data-name="Path 111" class="cls-6" d="M117.673,180.182l.57-.869,2.028,1.327-.57.871Z" transform="translate(-107.994 -164.755)"/>
    <path id="Path_112" data-name="Path 112" class="cls-7" d="M115.295,179.524l.393-.6,2.576,1.689-.393.6Z" transform="translate(-105.804 -164.395)"/>
    <path id="Path_113" data-name="Path 113" class="cls-6" d="M172.363,215.094l.57-.872,2.028,1.33-.57.871Z" transform="translate(-158.355 -196.9)"/>
    <path id="Path_114" data-name="Path 114" class="cls-7" d="M169.984,214.47l.393-.6,2.576,1.689-.393.6Z" transform="translate(-156.164 -196.574)"/>
  </g>
</svg>
