<svg xmlns="http://www.w3.org/2000/svg" width="60" height="57.254" viewBox="0 0 60 57.254">
  <g id="growth" transform="translate(0 -0.467)">
    <path id="Path_160" data-name="Path 160" d="M29.8,226a14.8,14.8,0,0,1-6.114-1.318l-9.251-4.2a33.911,33.911,0,0,0-10.517-2.861l-3.038-.317A1,1,0,0,1,0,216.3V206.35a1.049,1.049,0,0,1,.2-.612c.227-.317,5.672-7.741,13.989-5.81a34.535,34.535,0,0,1,10.78,4.628,10.545,10.545,0,0,0,5.748,1.678h9.251a4.406,4.406,0,0,1,3.78,2.2l7.967-9.581a8.335,8.335,0,0,1,6.717-3.472h.6a.967.967,0,0,1,.818.462,1.06,1.06,0,0,1,.077.969l-7.206,17.093a13,13,0,0,1-8.58,7.553l-1.268.331-7.375,3.079A14.777,14.777,0,0,1,29.8,226ZM1.956,215.372l2.157.225a35.819,35.819,0,0,1,11.1,3.02l9.25,4.2a12.932,12.932,0,0,0,10.3.159l7.435-3.1a.975.975,0,0,1,.126-.042l1.332-.348a11,11,0,0,0,7.265-6.395l6.572-15.591a6.492,6.492,0,0,0-4.263,2.641L44.4,210.752c0,.04,0,.079,0,.119a4.549,4.549,0,0,1-4.443,4.638H27.057a14.968,14.968,0,0,0-4.928.834l-.359-.952-.3-.97.05-.017a16.835,16.835,0,0,1,5.541-.937H39.963a2.6,2.6,0,0,0,0-5.194H30.713a12.438,12.438,0,0,1-6.779-1.984,32.622,32.622,0,0,0-10.173-4.37c-6.3-1.458-10.83,3.587-11.805,4.791v8.662Zm0,0" transform="translate(0 -168.284)" fill="#2e8bd9"/>
    <path id="Path_161" data-name="Path 161" d="M232.4,107.427a11.979,11.979,0,0,1-5.267-1.453,1.027,1.027,0,0,1-.5-.569c-.079-.221-1.9-5.467,1-9.346,2.106-2.82,6.067-4.09,11.778-3.772a1.019,1.019,0,0,1,.962.968c.02.405.441,9.971-4.436,13.156A6.309,6.309,0,0,1,232.4,107.427Zm-3.966-3.091c2.681,1.257,4.824,1.38,6.377.366,2.892-1.889,3.518-7.5,3.533-10.415-4.475-.109-7.521.9-9.086,2.993C227.4,99.772,228.119,103.2,228.432,104.335Zm0,0" transform="translate(-194.044 -78.824)" fill="#2e8bd9"/>
    <path id="Path_162" data-name="Path 162" d="M107.694,16a9.55,9.55,0,0,1-5.719-1.722c-3.09-2.265-4.51-6.576-4.222-12.813A1.021,1.021,0,0,1,98.712.5C99.154.47,109.6-.088,113.119,5.19c1.637,2.457,1.5,5.674-.4,9.565a1.019,1.019,0,0,1-.565.51A14.093,14.093,0,0,1,107.694,16Zm4.11-1.7h.01ZM99.762,2.5c-.088,5,1.06,8.4,3.419,10.13,2.824,2.069,6.68,1.189,7.892.836,1.387-3.01,1.5-5.413.348-7.148C109.272,3.1,102.97,2.465,99.762,2.5Zm0,0" transform="translate(-83.941)" fill="#2e8bd9"/>
    <path id="Path_163" data-name="Path 163" d="M150.883,79.294c-.032,0-.064,0-.1,0a1.02,1.02,0,0,1-.923-1.067q.09-1.8.3-3.418c.425-7.222.206-24.041-10.428-28.694a1.02,1.02,0,1,1,.818-1.87c6.266,2.742,10.208,9.567,11.4,19.739.107.912.187,1.81.246,2.686,2.8-7.077,7.085-9.577,7.34-9.72a1.02,1.02,0,0,1,1,1.777c-.108.063-6.678,4.006-8.327,16.165-.126,2.08-.307,3.406-.324,3.528A1.02,1.02,0,0,1,150.883,79.294Zm0,0" transform="translate(-119.67 -37.157)" fill="#2e8bd9"/>
  </g>
</svg>
