<svg xmlns="http://www.w3.org/2000/svg" width="60" height="59.65" viewBox="0 0 60 59.65">
  <g id="rocket" transform="translate(0 -1.492)">
    <g id="Group_220" data-name="Group 220" transform="translate(0 59.298)">
      <g id="Group_219" data-name="Group 219">
        <circle id="Ellipse_759" data-name="Ellipse 759" cx="0.922" cy="0.922" r="0.922" fill="#2e8bd9"/>
      </g>
    </g>
    <g id="Group_222" data-name="Group 222" transform="translate(30.381 29.133)">
      <g id="Group_221" data-name="Group 221">
        <circle id="Ellipse_760" data-name="Ellipse 760" cx="0.921" cy="0.921" r="0.921" fill="#2e8bd9"/>
      </g>
    </g>
    <g id="Group_224" data-name="Group 224" transform="translate(39.813 14.218)">
      <g id="Group_223" data-name="Group 223">
        <path id="Path_157" data-name="Path 157" d="M332.238,106.664a3.916,3.916,0,1,0,0,5.541A3.892,3.892,0,0,0,332.238,106.664Zm-1.3,4.239a2.077,2.077,0,1,1,0-2.937A2.079,2.079,0,0,1,330.936,110.9Z" transform="translate(-325.551 -105.516)" fill="#2e8bd9"/>
      </g>
    </g>
    <g id="Group_226" data-name="Group 226" transform="translate(2.966 49.234)">
      <g id="Group_225" data-name="Group 225">
        <path id="Path_158" data-name="Path 158" d="M40.882,383.443a.92.92,0,0,0-1.234.414l-1.1,2.2a3.038,3.038,0,0,1-2.5,1.67l-1.275.087a.546.546,0,0,1-.581-.581l.087-1.275a3.038,3.038,0,0,1,1.67-2.5l2.2-1.1a.92.92,0,0,0-.821-1.648l-2.2,1.1a4.886,4.886,0,0,0-2.687,4.025l-.087,1.275a2.386,2.386,0,0,0,2.381,2.549c.054,0,.109,0,.163-.006l1.275-.087a4.885,4.885,0,0,0,4.025-2.687l1.1-2.2A.92.92,0,0,0,40.882,383.443Z" transform="translate(-32.35 -380.616)" fill="#2e8bd9"/>
      </g>
    </g>
    <g id="Group_228" data-name="Group 228" transform="translate(0.002 1.492)">
      <g id="Group_227" data-name="Group 227" transform="translate(0 0)">
        <path id="Path_159" data-name="Path 159" d="M59.2,2.276A2.724,2.724,0,0,0,57.119,1.5l-1.1.07A35.5,35.5,0,0,0,30.8,14.576l-2.579,3.175-6.748-.2h-.034A19.905,19.905,0,0,0,7.274,23.421L.363,30.332a1.176,1.176,0,0,0,.772,2.007l14.63.752-.6.734a1.176,1.176,0,0,0-.12,1.3q.344.632.72,1.244L12.3,40.492a1.177,1.177,0,0,0-.164,1.261,15.319,15.319,0,0,0,7.355,7.355,1.177,1.177,0,0,0,1.245-.15c.747-.606,1.609-1.326,2.443-2.021.594-.5,1.2-1,1.77-1.47q.509.306,1.031.591a1.176,1.176,0,0,0,1.283-.1l.8-.622.755,14.692a1.176,1.176,0,0,0,2.007.772l6.912-6.912A19.9,19.9,0,0,0,43.6,39.717V33.272l2.727-2.116A35.357,35.357,0,0,0,59.985,4.922l.028-.573A2.726,2.726,0,0,0,59.2,2.276ZM3.9,30.125l5.041-5.041a17.568,17.568,0,0,1,12.487-5.179l4.932.145L17.6,30.829ZM21.669,45.131c-.614.512-1.244,1.038-1.828,1.518A12.925,12.925,0,0,1,14.6,41.413L17.14,38.4a27.276,27.276,0,0,0,2.517,2.921l0,0h0A27.279,27.279,0,0,0,22.9,44.106C22.494,44.443,22.078,44.79,21.669,45.131Zm19.582-5.414a17.567,17.567,0,0,1-5.179,12.5l-5.041,5.041-.7-13.687L41.252,35.1v4.619ZM57.635,4.807A33.007,33.007,0,0,1,44.889,29.3L26.436,43.617a24.914,24.914,0,0,1-4.262-3.146L28.4,34.249a1.177,1.177,0,1,0-1.664-1.664L20.516,38.8A24.91,24.91,0,0,1,17.5,34.687L32.63,16.06A33.138,33.138,0,0,1,56.174,3.916l1.1-.07a.371.371,0,0,1,.394.388Z" transform="translate(-0.018 -1.492)" fill="#2e8bd9"/>
      </g>
    </g>
  </g>
</svg>
