<svg xmlns="http://www.w3.org/2000/svg" width="40.008" height="30" viewBox="0 0 40.008 30">
  <defs>
    <style>
      .cls-1 {
        fill: #c06c98;
      }
    </style>
  </defs>
  <path id="sass" class="cls-1" d="M18.843,38.665C18.824,38.7,18.805,38.733,18.843,38.665Zm15.574-5.437a8.2,8.2,0,0,0-3.625.844,7.7,7.7,0,0,1-.812-1.881,5.021,5.021,0,0,1-.069-1.581,13.315,13.315,0,0,1,.475-1.7c-.006-.069-.087-.412-.894-.419s-1.5.156-1.581.369a7.676,7.676,0,0,0-.331,1.194,28.969,28.969,0,0,1-2.444,4.706,4.852,4.852,0,0,1-.556-1.375,5.021,5.021,0,0,1-.069-1.581,13.315,13.315,0,0,1,.475-1.7c-.006-.069-.087-.412-.894-.419s-1.5.156-1.581.369-.169.712-.331,1.194-2.119,4.831-2.631,5.962c-.262.575-.487,1.037-.65,1.35-.025.05-.044.081-.056.106.019-.031.031-.062.031-.05-.137.269-.219.419-.219.419v.006c-.106.2-.225.381-.281.381a2.592,2.592,0,0,1,.019-1.244c.294-1.512.987-3.862.981-3.943-.006-.044.131-.45-.456-.669a.736.736,0,0,0-.825.137c-.05,0-.087.125-.087.125s.631-2.65-1.212-2.65c-1.15,0-2.75,1.262-3.537,2.406-.494.269-1.562.85-2.687,1.469l-1.294.712c-.031-.031-.056-.062-.087-.094C6.95,33.284,2.819,31.6,2.994,28.39c.062-1.169.469-4.237,7.943-7.962,6.125-3.05,11.024-2.212,11.868-.35,1.212,2.656-2.619,7.6-8.981,8.312a4.79,4.79,0,0,1-4.018-1.019c-.331-.369-.381-.387-.506-.319-.206.112-.075.437,0,.631a3.765,3.765,0,0,0,2.3,1.806,12.182,12.182,0,0,0,7.449-.737c3.862-1.487,6.868-5.631,5.987-9.1-.9-3.525-6.743-4.681-12.274-2.719a27.81,27.81,0,0,0-9.418,5.4C.3,25.184-.187,27.666.013,28.7c.712,3.681,5.787,6.081,7.818,7.856-.1.056-.194.106-.281.156-1.019.506-4.887,2.531-5.856,4.668-1.094,2.425.181,4.162,1.019,4.4a6.242,6.242,0,0,0,6.724-2.725,6.765,6.765,0,0,0,.6-6.218c-.006-.019-.019-.031-.025-.05.262-.156.531-.312.8-.469.519-.306,1.025-.587,1.469-.831a9.707,9.707,0,0,0-.525,2.662,5.532,5.532,0,0,0,1.194,3.856,1.313,1.313,0,0,0,.962.312c.862,0,1.25-.712,1.681-1.562.531-1.037,1-2.244,1-2.244s-.587,3.262,1.019,3.262c.587,0,1.175-.756,1.437-1.144v.006s.013-.025.044-.075c.062-.094.094-.15.094-.15V40.4c.237-.406.756-1.337,1.537-2.875,1.012-1.987,1.981-4.468,1.981-4.468a12.576,12.576,0,0,0,.387,1.612,15.1,15.1,0,0,0,.837,1.875c-.237.325-.381.512-.381.512a.019.019,0,0,0,.006.013c-.187.25-.4.519-.619.781a21.975,21.975,0,0,0-1.875,2.35.638.638,0,0,0,.175.856,1.52,1.52,0,0,0,.981.156,4.334,4.334,0,0,0,1.469-.337,5.14,5.14,0,0,0,1.262-.662,2.821,2.821,0,0,0,1.212-2.487,5.176,5.176,0,0,0-.456-1.762c.069-.1.144-.206.212-.312a33.216,33.216,0,0,0,2.194-3.787,12.576,12.576,0,0,0,.387,1.612,11.029,11.029,0,0,0,.712,1.606,6.867,6.867,0,0,0-2.131,2.756c-.462,1.331-.1,1.931.581,2.069a2.1,2.1,0,0,0,1.069-.219,4.96,4.96,0,0,0,1.35-.694,3.02,3.02,0,0,0,1.487-2.475,4.649,4.649,0,0,0-.337-1.462,7.631,7.631,0,0,1,3.881-.45c3.481.406,4.162,2.581,4.031,3.487a2.294,2.294,0,0,1-1.106,1.562c-.244.15-.319.206-.3.319.031.162.144.156.35.119a2.715,2.715,0,0,0,1.894-2.419c.1-2.125-1.944-4.462-5.562-4.443ZM7.588,42.271C6.438,43.527,4.825,44,4.132,43.6c-.744-.431-.45-2.281.969-3.618a18.52,18.52,0,0,1,2.712-2.025c.169-.1.412-.25.712-.431.05-.031.075-.044.075-.044.056-.037.119-.069.181-.106a4.987,4.987,0,0,1-1.194,4.893Zm8.4-5.712c-.4.981-1.244,3.481-1.756,3.35-.437-.112-.706-2.019-.087-3.893a8.619,8.619,0,0,1,1.369-2.506c.631-.706,1.325-.931,1.487-.65.219.369-.762,3.087-1.012,3.7Zm6.937,3.312c-.169.087-.325.144-.4.1-.056-.031.069-.15.069-.15s.869-.931,1.212-1.356c.2-.25.431-.544.681-.869,0,.031.006.062.006.1A2.892,2.892,0,0,1,22.924,39.871Zm5.35-1.219c-.125-.087-.106-.381.312-1.294a4.867,4.867,0,0,1,1.187-1.531,2.261,2.261,0,0,1,.119.675A2.2,2.2,0,0,1,28.273,38.652Z" transform="translate(0.026 -15.984)"/>
</svg>
