<svg id="babel" xmlns="http://www.w3.org/2000/svg" width="45" height="17.525" viewBox="0 0 45 17.525">
  <defs>
    <style>
      .cls-1 {
        fill: #f9dc3e;
      }
    </style>
  </defs>
  <path id="Path_7" data-name="Path 7" d="M32.414,4.315l-.01-.1-.156.013.01.1.156-.013Zm1.05,2.526,0,.053.11-.01a.419.419,0,0,1,.033-.153l-.01-.1c-.046,0-.093.073-.136.206Zm-4.1,3.181a5.013,5.013,0,0,0-.838-1.054c-.01-.113.179-.282.568-.505l1.11-.967a2.78,2.78,0,0,0,.439-1.539l-.013-.163c-.043-.492-.4-.887-1.073-1.19a4.3,4.3,0,0,0-2.154-.445,12.69,12.69,0,0,0-3.357.921,13.763,13.763,0,0,1-1.3.818l.007.083a.308.308,0,0,0,.13-.057A.073.073,0,0,1,22.982,6l.083-.043.04,0,0,.037a4.559,4.559,0,0,1-.9.7l.047.086-.04,0-.1-.037c0,.03-.04.05-.123.057l0,.037.1.12a.365.365,0,0,1-.14-.033.671.671,0,0,0-.412.226L21.6,6.9a20.086,20.086,0,0,0,.415-2.32L22,4.537a1.687,1.687,0,0,1-.4-.376,1.324,1.324,0,0,0,0-.176l-.01-.037-.04.01q-.658.987-2.536,3.37a14.416,14.416,0,0,0-1.476,1.884c-.389.4-.575.645-.555.728-.1.066-.146.133-.13.206a.041.041,0,0,1-.057-.033,1.132,1.132,0,0,1-.741.518l-.346.08a.083.083,0,0,0-.066.1l.01.043.13-.03.01.037-.293.113-.518.12-.273.017c-.04.04.216,0,.116.02l-.339.08c-.206.046-.319.03-.339-.053l-.04.01a.2.2,0,0,1,0,.086l-.02-.083-.273.063a6.909,6.909,0,0,0-1.1-1.376c-.013-.153.239-.376.754-.665l1.456-1.28A3.729,3.729,0,0,0,15.508,5.9l-.02-.216c-.057-.651-.528-1.177-1.416-1.582a5.605,5.605,0,0,0-2.832-.575,17.059,17.059,0,0,0-4.42,1.2A16.905,16.905,0,0,1,5.115,5.8l.01.113a.447.447,0,0,0,.169-.066.1.1,0,0,1,.12.093l.113-.063.057,0,0,.053a6.647,6.647,0,0,1-1.193.927l.063.1-.056,0-.123-.043c0,.033-.053.057-.169.066l.007.06.133.146a.486.486,0,0,1-.179-.037,1.131,1.131,0,0,0-.761.562l.063.1a1.6,1.6,0,0,1,.379-.3l.013.163a.546.546,0,0,0-.169.066l.136.206A4.5,4.5,0,0,1,4.6,7.219c.156.04.239.09.243.143l.12-.01A9.277,9.277,0,0,1,7.5,5.976l.01.113q-.234.349-.319.359a.365.365,0,0,0,.083.209A20.125,20.125,0,0,1,6.135,9.546,77.559,77.559,0,0,1,1.7,18.732a.383.383,0,0,0,.07.16,1.486,1.486,0,0,0,.562-.213l.063-.007.01.113.11-.01.113-.063c0,.033.04.05.116.043l.01.113a1.009,1.009,0,0,1-.186.505,2.626,2.626,0,0,0-.385.857l0,.053.11-.01A6.97,6.97,0,0,0,3.387,18.7a17.414,17.414,0,0,0,3.2-1.206,2.993,2.993,0,0,0,1.692-.582l-.007-.06-.279.083-.063.007-.007-.06a2.52,2.52,0,0,0,1.13-.369q1.59-1.226,2.4-1.738a6.285,6.285,0,0,0,2.167-2.39c.06-.013.12-.027.186-.043a2.433,2.433,0,0,0,.266-.017c-.007-.03.007-.046.037-.053.249-.027.13.017.289-.02l.419-.1c-.027.007-.037.02-.03.046l.063-.04a.1.1,0,0,1-.033-.007l.07-.017-.033.02a.411.411,0,0,0,.153-.01l.03.123-1.9,3.028-.422.528-.206.691.04-.01.206-.086-.066.269.02.08.056.07c-.027.007-.036.023-.03.053l.01.043.086-.02q.189-.165.16-.3a.788.788,0,0,0,.273.02l.01.043c-.083.02-.126.086-.133.2l.01.043.046-.01c.691-.754,2.386-3.337,3.746-5.088q-.065-.284,2.127-.791l.047-.01a4.488,4.488,0,0,1-.339,1.665,4.488,4.488,0,0,0-.253.871,6.678,6.678,0,0,0-.329,1.15l-.518,1.7a15.51,15.51,0,0,0-.771,2.749.337.337,0,0,1,.143.013l.073-.063a.041.041,0,0,0,.057.033l-.03-.123.226-.007c.066-.017.123-.1.17-.253-.01-.229.037-.352.14-.379a3.665,3.665,0,0,1,.256-.828,3.672,3.672,0,0,1,.289-.927c.2-.7.339-1.067.432-1.09l.02.086-.143.369a18.08,18.08,0,0,1-.758,2.622l.073.319.046-.01a68.141,68.141,0,0,0,2.669-7.9,1.031,1.031,0,0,1,.5-.8l-.067-.07-.01-.037a.454.454,0,0,0,.279-.156c-.007-.03-.123-.073-.349-.133l.578-2.479a.855.855,0,0,1,.223-.173l.01.126a.307.307,0,0,0-.13.056l.11.156a3.553,3.553,0,0,1,.651-.558c.12.033.179.073.186.113l.086-.007a7.045,7.045,0,0,1,1.938-1.037l.007.083q-.174.264-.239.269a.364.364,0,0,0,.053.16,15.134,15.134,0,0,1-.861,2.2,59.727,59.727,0,0,1-3.367,6.973.309.309,0,0,0,.06.123,1.078,1.078,0,0,0,.422-.163l.04,0,.007.083.093-.007.083-.043q0,.035.09.03l.007.09a.754.754,0,0,1-.143.379,1.9,1.9,0,0,0-.3.648l0,.043.086-.007a5.251,5.251,0,0,0,.828-1.2,13.391,13.391,0,0,0,2.426-.914,2.279,2.279,0,0,0,1.29-.442l0-.043-.216.063-.046,0,0-.043a1.912,1.912,0,0,0,.857-.276c.8-.618,1.412-1.06,1.825-1.319,1.283-.934,1.881-1.831,1.808-2.692Zm-.219.057.03.336c-.04.083-.083.126-.123.13L29,9.971c.093.033.14.066.143.106ZM3.982,7.372l-.057,0-.01-.1.229-.02,0,.053a.441.441,0,0,0-.166.067Zm-1.12,11.2a.712.712,0,0,0-.356-.073l-.013-.163c-.007-.063.03-.106.11-.123s.116.047.123.153a2.421,2.421,0,0,1,.319-.359l.123.05c-.04.332-.143.5-.306.515ZM14.83,6.056c-.057.007-.17-.169-.332-.518l-.01-.1c.106-.01.216.163.332.518l.01.1Zm-.16-1.24-.046.11L13,4.248q1.625.055,1.672.568ZM7.807,10.709l-.229.02-.01-.1.229-.02.01.1Zm-.186-3.54.057,0,.013.163c-.053,0-.123.083-.209.236l-.01-.113c.1-.123.156-.216.15-.282ZM7.139,8.306l.02.216-.057,0-.02-.216.057,0Zm-.253.406L7,8.7c-.01.179-.06.276-.15.282l-.057,0a.52.52,0,0,0,.1-.276ZM6.7,9.276,6.76,9.27l0,.053-.1.173-.11.01,0-.053a.143.143,0,0,0,.15-.176Zm-.186.509-.033.272-.057,0L6.4,9.792l.113-.007Zm-1.864,5.3c-.073.372-.153.562-.236.568l0-.053a.6.6,0,0,1,.239-.515Zm-.342.741,0,.053a.1.1,0,0,1-.1.12l0-.053q-.01-.095.1-.12Zm-.1,1.539.173-.017.007.06a.446.446,0,0,0-.169.066l-.11.01c-.007-.056.03-.1.1-.12Zm4.919-1.519a9.112,9.112,0,0,0-1.712.974q-1.575.548-1.562.681a17.141,17.141,0,0,0-1.844.811.662.662,0,0,1-.3-.08.489.489,0,0,1,.253-.465.981.981,0,0,1,.469.073,4.561,4.561,0,0,1,.9-.3l-.01-.113-.346.03a4.689,4.689,0,0,1,1-.469l.173-.017,0,.053c-.3.027-.459.113-.5.269.007.07.047.1.12.093.223-.14.332-.223.329-.246a18.466,18.466,0,0,0,3.5-1.831l.01.1c0,.05-.16.189-.489.429Zm-2.931.964a1.132,1.132,0,0,0,.718-.332c.08-.007.123.023.126.093a2.554,2.554,0,0,0-.781.346l-.057,0-.007-.11Zm4.729-3.633-1.466,1.16A14.974,14.974,0,0,1,7.7,15.418,13.278,13.278,0,0,1,4.464,16.9L4.4,16.91q.08-.294,2.32-4.746a12.646,12.646,0,0,0,3.107-.921l.346-.03a1.993,1.993,0,0,1,1.6.409l.02.216q-.4,1.147-.874,1.339ZM8.056,11.566l.236-.02,0,.053-.236.02,0-.053ZM11.37,11l.173-.017c.16.076.243.143.249.2l0,.053A.485.485,0,0,1,11.37,11Zm.469-2.669a6.763,6.763,0,0,1-1.256.934,16.234,16.234,0,0,0-2.522.984.461.461,0,0,0-.233-.04l-.01-.1A1.361,1.361,0,0,1,8.1,9.32c.113-.6.236-.941.372-1.024L9.685,5.567q-.02-.254.778-.389l.173-.017.013.156c.522-.08.847-.126.974-.136.964-.083,1.466.113,1.506.582l.11-.01-.023-.276.12-.01a.755.755,0,0,1,.455.568.885.885,0,0,1-.246.568c-.073.007-.116-.047-.123-.153l-.12.01-.027.332q-.733,1.1-1.064,1.127c-.2.276-.322.412-.372.415Zm.744,1.911a.429.429,0,0,0-.239-.093l-.013-.163.11-.01.243.143a.1.1,0,0,1-.1.123Zm.771.914c.106.043.17.09.183.133l-.053.013,0,0a.118.118,0,0,0-.033.007l-.08.063-.02-.219Zm.073.459-.01-.043.14-.033.01.043-.14.033Zm.336.376c.143-.023.213-.033.479-.093l.01.043-.505.116A.642.642,0,0,0,13.763,12Zm.492.209a2.163,2.163,0,0,0-.505.07l-.01-.043.422-.136.2-.046.02.08c-.09.02-.023.02-.13.076ZM14.7,12.1a.091.091,0,0,1-.113-.066l.13-.03a.079.079,0,0,1,.106.067l-.123.03Zm1.216-1.309-.01-.043.209-.05.02.08-.219.013Zm1.3,7.97a.329.329,0,0,0,.01-.133l.047-.01a.075.075,0,0,1,.1.06l.01.043-.169.04Zm.911-7.627-.093-.017a2.639,2.639,0,0,1-.379.126l-.086.02a.085.085,0,0,1-.11-.06l.608-.14.2-.093.066.076a.444.444,0,0,0-.206.086Zm.469-.15-.01-.043a.255.255,0,0,0,.113-.073l.432-.1.01.043a3.342,3.342,0,0,0-.545.173Zm.067-.874a.358.358,0,0,0-.12.073c-.007-.03-.066-.03-.179,0-.02-.083.3-.2.961-.352l.093-.02.02.08c-.465.136-.724.213-.774.223Zm1.163-1.256c-.047.528-.233.828-.562.9l-.01-.043-.292.113-.13.03a.326.326,0,0,1-.179,0l-.027-.116A17.571,17.571,0,0,1,19.9,7.984L20,8a1.817,1.817,0,0,1-.169.851ZM21.885,7.09l-.04,0-.007-.083.173-.017,0,.043a.56.56,0,0,0-.13.053ZM21.038,15.6a.534.534,0,0,0-.266-.06l-.01-.126q-.005-.065.08-.09c.057-.007.09.033.1.12a1.455,1.455,0,0,1,.239-.276l.09.037c-.033.253-.11.385-.229.4ZM30.124,6.1c-.043,0-.126-.13-.256-.4l-.007-.083c.083-.007.169.123.256.389l.007.093ZM30,5.145l-.04.086-1.23-.515c.821.027,1.246.17,1.27.429ZM24.79,9.622l-.173.017-.007-.083.173-.013.007.08Zm-.143-2.689.046,0,.01.126q-.065.005-.16.179l-.007-.083a.386.386,0,0,0,.11-.219Zm-.362.864.013.163-.046,0L24.238,7.8l.047,0Zm-.2.309.086-.007q-.015.209-.11.219l-.046,0a.451.451,0,0,0,.07-.216Zm-.14.425.04,0,0,.043-.076.133-.086.007,0-.043c.09-.007.13-.053.123-.136Zm-.14.385-.03.213-.04,0-.017-.209.086-.007Zm-1.419,4.031q-.085.419-.179.429l0-.037a.476.476,0,0,1,.183-.392Zm-.263.562,0,.037a.076.076,0,0,1-.08.1l0-.043q-.005-.065.08-.09Zm-.073,1.17.133-.01,0,.043a.382.382,0,0,0-.13.05l-.086.007q-.005-.07.08-.09Zm3.732-1.153a7.758,7.758,0,0,0-1.3.734c-.8.279-1.193.452-1.187.522a12.607,12.607,0,0,0-1.393.615.517.517,0,0,1-.229-.063.354.354,0,0,1,.193-.346.75.75,0,0,1,.356.053,3.86,3.86,0,0,1,.688-.223l-.007-.083-.273.02A3.578,3.578,0,0,1,23.4,14.4l.133-.01,0,.037c-.226.02-.352.086-.379.206a.073.073,0,0,0,.093.073c.166-.11.246-.173.246-.193a13.6,13.6,0,0,0,2.656-1.393l.007.083c0,.037-.12.143-.369.326Zm-2.227.731a.893.893,0,0,0,.552-.249.073.073,0,0,1,.093.073,2.114,2.114,0,0,0-.592.253l-.046,0-.007-.08Zm3.6-2.762-1.107.891a10.75,10.75,0,0,1-1.346.821,9.9,9.9,0,0,1-2.456,1.127l-.046,0q.06-.224,1.765-3.6a9.725,9.725,0,0,0,2.356-.7l.269-.023a1.5,1.5,0,0,1,1.213.316l.013.163c-.2.572-.422.907-.661,1.01Zm-2.174-1.223.173-.017,0,.043-.173.017,0-.043ZM27.5,9.845l.133-.01c.123.06.186.113.189.156l0,.037a.371.371,0,0,1-.326-.183Zm.349-2.024a5.085,5.085,0,0,1-.947.711,12.714,12.714,0,0,0-1.914.741.436.436,0,0,0-.176-.023L24.8,9.167a1.043,1.043,0,0,1,.209-.6c.086-.459.183-.715.282-.774l.927-2.074c-.01-.123.186-.223.585-.3l.133-.01.01.126q.588-.095.738-.11c.731-.063,1.113.083,1.143.442l.086-.007-.017-.2.086-.007a.552.552,0,0,1,.339.422.688.688,0,0,1-.176.435c-.056.007-.09-.033-.1-.12l-.086.007-.027.249c-.369.562-.638.851-.808.864-.15.2-.243.306-.286.309ZM28.237,9.2l-.01-.126.086-.007.186.113a.078.078,0,0,1-.08.09.341.341,0,0,0-.183-.07ZM12.766,17.276l-.086.02-.073.063a.075.075,0,0,0,.1.06c.057-.013.08-.046.067-.1l-.01-.043Zm-.329-.655.01.043c.057-.013.08-.046.066-.1l-.01-.043a.078.078,0,0,0-.066.1Zm2.34-5.567.1-.023-.02-.086-.1.023.02.086Zm30.157,2.533a5.61,5.61,0,0,1-1.349.2l.007.083.093-.007.05,0-.013-.01.11-.043c1-.11,1.117-.07,1.107-.183l0-.04Zm-5.441.721.007.083h.013l-.007-.083Zm-.625-2.19-.09-.03a1.5,1.5,0,0,0-.106.346l0,.037c.07,0,.133-.123.193-.352ZM45.14,13.57l.007.083.146.027-.007-.083-.146-.027Zm-6.876.841-.226-.027-.04.086,0,.043,1.346-.113-.007-.083-1.077.093Zm-.612-2.948,0-.043-.047,0-.083.053.047.08c.063-.007.093-.037.086-.093Zm8.126,1.5.063-.007c.037,0,.053-.033.05-.086l-.037-.08a1.077,1.077,0,0,0-.522.133l0-.043-.276.027c-.007-.083-.03-.126-.066-.123l-.143.013c-.166.013-.246.007-.329.07,0-.03-.013-.043-.03-.043l-.16.013-.093.053c0-.03-.013-.043-.03-.043l-.056.05,0-.043-.223-.017-.053,0,.007.083.113.03.106-.007a.193.193,0,0,0,.123.027l.093-.046,0,.037a6.807,6.807,0,0,1-.877.166.151.151,0,0,0-.09-.037l-.007.007a.07.07,0,0,1-.066-.073L43.458,13a1.162,1.162,0,0,0,.126.033c.15-.073.156-.1.236-.11l-.007-.083a5.408,5.408,0,0,1-.947.09l-.03,0-.007-.083c.824-.1.548-.043.831-.123,0,.03.013.043.03.043a.193.193,0,0,1,.113-.056l.057,0a3.018,3.018,0,0,0,.957-.126l0,.037.093-.047L45,12.567c-.007-.083.12-.1.163-.1l-.007-.09c-1,.2-1.266.146-1.545.226l0-.037a1.217,1.217,0,0,1-.339.03.176.176,0,0,0-.083.053c0-.03-.013-.043-.033-.043a.068.068,0,0,0-.017,0l-.851.14c0-.023-.013-.036-.033-.033a4.341,4.341,0,0,1-.914.163.277.277,0,0,0-.11.047c0-.023-.017-.037-.046-.033l-.362.03-.243.06c0-.023-.017-.036-.047-.033a1.937,1.937,0,0,1-.352.067h-.007c-.06.007.03-.017-.017-.037l-.073.043c-.106.01-.05-.007-.415,0-.641.08-.572.09-.641.093l-.239-.017a.033.033,0,0,1-.037.04c-.273-.037-.412-.08-.415-.13q.055-.389.189-.4l.046,0-.04.086.047,0c.086-.046.126-.09.123-.13l-.007-.09-.086.007-.007-.083a.3.3,0,0,1,.027-.166l.2-.316.007.083.093-.007-.007-.083-.053-.076a.339.339,0,0,1,.166-.1l0-.043-.126.01-.01-.126a3.563,3.563,0,0,0,.366-.917l.09.037c.057,0,.083-.037.08-.1l-.086.007,0-.037a.318.318,0,0,1,.033-.176.556.556,0,0,0,.186-.435c.027,0,.04.01.043.04.116-.066.206-.243.272-.535a16.708,16.708,0,0,0,.881-2.23,12.59,12.59,0,0,0,.8-2.642l-.086.007a.3.3,0,0,1-.033.17.342.342,0,0,0-.14-.033l0-.037a1.01,1.01,0,0,1,.216-.612l.04,0,.073.286.086-.007a2.614,2.614,0,0,1,.067-.342c0-.043-.037-.07-.1-.073l-.083.053c-.007-.06,0-.216.007-.465l-.043,0a.324.324,0,0,1-.113-.183l-.475.046a.439.439,0,0,0-.053-.146c0-.043.1-.086.322-.13l.1.037.09-.053c0,.03.02.043.053.04l.09-.053c0,.03.02.043.053.04l.043,0-.007-.1c-.066.007-.243.007-.522,0l-.09.06,0-.053q-3.345.274-3.8.316c-.04,0-.2,0-.472-.007,0,.037-.03.057-.1.063l-.1-.043-.326.083a2.168,2.168,0,0,1-.385-.017.332.332,0,0,1-.183.07c-.04,0,.475-.027.954-.06a.436.436,0,0,1-.233.073.319.319,0,0,1-.189-.033,5.4,5.4,0,0,1-.7.166l-.1-.036-1.555.239a.388.388,0,0,0-.209-.033,2.589,2.589,0,0,0-.415.09l-.751.312.057.093a.414.414,0,0,0,.153-.06l.266.023-.033.249A.67.67,0,0,0,32.491,5c-.369.163-.552.279-.552.349l0,.043.057,0,.1-.053.116.14.017.193q.01.09-1.858,3.918c-1.077,2.459-1.642,3.805-1.695,4.048-.369.1-.582.253-.645.452.007.063.116.106.329.123l.01.1-.1.16.017.193q.015.15.808.229c0-.033.013-.053.05-.057a2.9,2.9,0,0,1-.1.7l.057,0a1.239,1.239,0,0,0,.312-.618l.047,0c.053,0,.11.057.176.186a7.919,7.919,0,0,0-.7,1.589l.057.093.057,0a11.7,11.7,0,0,1,.921-2.051q.962-.085,3.327-.339l.1-.06a.048.048,0,0,0,.06.046l.1-.01.1-.06a.048.048,0,0,0,.06.046l1.193-.1c.316-.027.465-.123.452-.286,0-.043.183-.093.558-.146a.455.455,0,0,1,.163.03c0-.03.186-.06.565-.093.01-.2.073-.306.186-.316l-.01-.1a1.65,1.65,0,0,0-.366.083,2.236,2.236,0,0,1-.475-.057.437.437,0,0,1-.153.06l-.831.027-.1.053q-.005-.045-.06-.04l-.046,0-.106.053c0-.03-.09-.053-.263-.076l-.106.063-.206.017,0-.053q1.605-.174,1.585-.435a.093.093,0,0,1,.113.1l.312-.08-.01-.1-2.562.07c0,.033-.013.053-.05.057l-.312-.027a.377.377,0,0,0-.2.07l-.116-.043a3.557,3.557,0,0,0-.721.116,4.539,4.539,0,0,0-.731.01l-.575.05-.266-.03a13.138,13.138,0,0,1,.994-2.5,2.178,2.178,0,0,1,.548-.941.387.387,0,0,1,.163.04l.409-.14.209.033a4.8,4.8,0,0,0,1.23-.3.576.576,0,0,1,.266.023l.312-.073.931-.08a6.172,6.172,0,0,0,1.289-.263l-.01-.1c-.173.017-.263-.013-.269-.083-.01-.13-.136-.183-.379-.163l-.01-.1.256-.073.671-.057-.01-.1c-.027,0-.163,0-.415-.01l-.01-.1.259-.023c.07-.007.1-.04.093-.106-.349.01-.525-.007-.528-.053a22.139,22.139,0,0,1-3.659.066.418.418,0,0,0-.153.067l-.063-.1a8.038,8.038,0,0,1,1.133-2.071.575.575,0,0,1-.083.256l0,.043.1-.01c.256-.612.472-.927.651-.941.764-.067-.106-.116,1.529-.372a.32.32,0,0,0,.146.04q.962-.194,2.682-.405l-.007-.1-.612.057-.007-.1a.332.332,0,0,0,.183-.07l0,.053a.36.36,0,0,0,.14-.067.436.436,0,0,1,.243.03,3.539,3.539,0,0,1,.512-.1l.382-.037c.093-.06.136-.113.133-.163l0-.043a1.207,1.207,0,0,1-.336-.02.1.1,0,0,1,.086-.106l.711-.066.326-.083c0,.037.02.05.046.05a.36.36,0,0,0,.14-.067c.017,0,.037,0,.053.007a2.646,2.646,0,0,0-.143.389l-.093.007a.405.405,0,0,0-.053-.17l-.046,0c-.864,2.406-1.25,3.526-2.047,5.374-.146.472-.269.734-.376.791a.073.073,0,0,0,.093.073,1.16,1.16,0,0,1-.163.688A6.905,6.905,0,0,1,37.3,12.72l.083.5a.078.078,0,0,1-.08.09l-.086.007c-.013-.14-.063-.206-.153-.2l-.046,0a1.978,1.978,0,0,0-.256.615l.086-.007a.287.287,0,0,0,.16-.269l.173-.017.1.037a.534.534,0,0,0-.11.3l.047.08-.113.266,0,.043a.54.54,0,0,1,.326.093.582.582,0,0,0,.263-.106c.1-.01.472-.013,1.113-.013l.322-.11a7.482,7.482,0,0,0,.794-.023l.14-.013.073-.05,0,.043a2.18,2.18,0,0,1,.658.027l0,.043-.2.017.007.083a.282.282,0,0,0,.156-.06c.05,0,.08.023.083.083a1.17,1.17,0,0,0-.269.06l-.086-.03c-.136.037-.106.047-.2.053l-.136-.027a.032.032,0,0,1-.033.04.072.072,0,0,0,.083.076l.14-.013.728-.063.276-.06c0,.023.013.037.037.033l.133-.05.249-.02c.193-.017.189-.03.608-.1,0-.027.007-.037.027-.04l0,.036a6.136,6.136,0,0,0,.834-.16l.01.02c.17-.04.073-.03.12-.063,0,.03.013.043.03.043l.12-.01-.007-.09-.243,0,0-.007-.027.007h-.033v.007a1.28,1.28,0,0,1-.273.02l-.608.033,0-.043.339-.046.123-.01.07-.05,0,.043a11.428,11.428,0,0,0,2.862-.392c.12-.01.11-.11.186-.316a.207.207,0,0,1-.116-.027,3.458,3.458,0,0,1-.631.093c-.03,0-.053-.023-.063-.076l0-.037.339.01a.856.856,0,0,0,.369-.12c0,.03-.067.047-.027.043Zm-16.365.263-.156.013a2.951,2.951,0,0,1,.249-.711l.1-.01a2.72,2.72,0,0,1-.2.708Zm.189-.758,0-.043c0-.053.03-.09.1-.106l0,.043c0,.063-.03.1-.1.106Zm2.077,1.605,0,.043-.259.023,0-.043.259-.023Zm-.312-.027c0,.053-.076.113-.249.173l-.319-.023-.1.01-.01-.1.681-.063Zm2.1-9.668-.156.013,0-.053c0-.053.027-.09.093-.106l.057,0,.106.043a.092.092,0,0,1-.1.106Zm2.376-.465.05,0L35.9,4l-.143.013a.1.1,0,0,1,.086-.106Zm-.6.209-.236-.027,0-.043a2.553,2.553,0,0,0,.6-.113c0,.037.037.05.1.043l.007.1-.093.01a.32.32,0,0,1-.189-.033.407.407,0,0,1-.183.066Zm.3.861,0-.043.382-.037,0,.043-.382.037Zm.409-.332,0-.053.186-.017,0,.053-.186.017ZM35.994,4l-.05,0,.043-.1.425-.04,0,.053A2.559,2.559,0,0,0,35.994,4Zm.216.917-.007-.1.186-.017q.095-.01.1.09l-.279.023Zm1.127-1.535-.239.067-.043,0a2.444,2.444,0,0,1-.432-.01c.309-.02.6-.043.715-.06ZM37.08,4.441l0,.043-.329.03,0-.043.329-.03Zm.538.256c0-.04-.066-.066-.2-.08l-.329.093-.253.01c-.057-.04-.086-.066-.09-.086l.292.017.658-.106.336.013,0,.053a1.886,1.886,0,0,0-.422.086Zm3.387-.874c.04,0,.066,0,.076,0a1.278,1.278,0,0,1,.4-.266,2.338,2.338,0,0,1-.562,1.167l-.186-.113a6.089,6.089,0,0,0,.276-.791Zm-.572.981.046,0c-.063.12-.12.183-.166.186L40.3,4.86a.284.284,0,0,0,.13-.056Zm-.369.881a1.248,1.248,0,0,1,.256-.615l0,.043c-.047.332-.12.509-.216.522l.017.209a.471.471,0,0,0-.113.266l-.046,0-.027-.289c.053-.007.1-.053.126-.14Zm-.143.479a1.211,1.211,0,0,1-.1.346l-.047,0-.01-.126c.063-.146.116-.219.153-.223ZM37.24,13.946l0-.036.086-.007.01.126c-.046,0-.08-.023-.093-.083Zm3.832.1c0-.03-.017-.043-.046-.04l-.216.02,0-.043h.02l.512-.043,0,.043a.448.448,0,0,0-.269.063Zm-.256-.106c.02.01.01.02,0,.027s-.023-.013,0-.027Zm.027-.6-.286.023,0-.043.259-.023.226-.057c0,.027.017.037.046.033.269-.046.243-.06.372-.07.043,0,.07.023.073.076l-.688.06Zm1-.086a1.138,1.138,0,0,0-.282-.02l0-.037.256-.023,0,.037c-.027,0,.07.01.027.043Zm.02-.046,0-.037.14-.013,0,.037-.14.013Zm.309-.027,0-.037a.241.241,0,0,0,.1-.053.1.1,0,0,1,.113.093l-.209,0Zm.4-.05,0-.043.17-.013,0,.043-.17.013Zm.236-.02c0-.05.017-.08.06-.086l.056.073a.031.031,0,0,1,.027-.04l.043.08-.186-.027ZM40.294,14.2l-.007-.083-.027,0,.007.083.027,0Zm5.839-1.512c.027-.017.04-.033-.023-.043-.03.033.033.043-.033.046l0,.03c.007-.007.023-.017.037-.027l-.037.03v0l-.07.09.14-.05h.017l-.007-.083-.027,0Zm.243.189-.027,0,.007.083.2-.017c0-.053-.133-.07-.176-.07Zm-.3-.146,0,0v0a.012.012,0,0,0,0,.007Z" transform="translate(-1.552 -2.759)"/>
  <path id="Path_8" data-name="Path 8" class="cls-1" d="M31.763,3.815l0,.053.11-.01a.42.42,0,0,1,.033-.153l-.01-.1c-.047,0-.093.073-.136.206ZM30.712,1.29l-.01-.1-.156.013.01.1.156-.013ZM27.665,7a5.017,5.017,0,0,0-.838-1.054c-.01-.113.179-.282.568-.505l1.11-.967a2.78,2.78,0,0,0,.439-1.539l-.013-.163c-.043-.492-.4-.887-1.073-1.19A4.3,4.3,0,0,0,25.7,1.133a12.69,12.69,0,0,0-3.357.921,13.783,13.783,0,0,1-1.3.818l.007.083a.309.309,0,0,0,.13-.057.073.073,0,0,1,.093.073l.083-.043.04,0,0,.037a4.56,4.56,0,0,1-.9.7l.046.086-.04,0-.1-.037c0,.03-.04.05-.123.057l0,.037.1.12a.365.365,0,0,1-.14-.033.671.671,0,0,0-.412.226l.057-.246a20.07,20.07,0,0,0,.415-2.32l-.01-.043a1.687,1.687,0,0,1-.4-.376,1.324,1.324,0,0,0,0-.176l-.01-.037-.04.01q-.658.987-2.536,3.37a14.416,14.416,0,0,0-1.476,1.884c-.389.4-.575.645-.555.728-.1.066-.146.133-.13.206a.041.041,0,0,1-.057-.033,1.132,1.132,0,0,1-.741.518l-.346.08a.084.084,0,0,0-.066.1l.01.043.13-.03.01.037L13.8,7.95l-.518.12-.272.017c-.04.04.216,0,.116.02l-.339.08c-.206.046-.319.03-.339-.053l-.04.01a.194.194,0,0,1,0,.086l-.02-.083-.273.063a6.9,6.9,0,0,0-1.1-1.376c-.013-.153.239-.376.754-.665l1.456-1.28a3.729,3.729,0,0,0,.582-2.014l-.02-.216c-.057-.651-.528-1.177-1.416-1.582A5.6,5.6,0,0,0,9.538.5a17.056,17.056,0,0,0-4.42,1.2,16.9,16.9,0,0,1-1.7,1.077l.01.113a.447.447,0,0,0,.17-.066.1.1,0,0,1,.12.093l.113-.063.057,0,0,.053a6.647,6.647,0,0,1-1.193.927l.063.1-.057,0-.123-.043c0,.033-.053.057-.17.066l.007.06.133.146a.486.486,0,0,1-.179-.037,1.13,1.13,0,0,0-.761.562l.063.1a1.6,1.6,0,0,1,.379-.3l.013.163a.545.545,0,0,0-.17.066l.136.206a4.5,4.5,0,0,1,.867-.728c.156.04.239.09.243.143l.12-.01A9.277,9.277,0,0,1,5.8,2.951l.01.113q-.234.349-.319.359a.365.365,0,0,0,.083.209A20.151,20.151,0,0,1,4.434,6.521,77.547,77.547,0,0,1,0,15.707a.384.384,0,0,0,.07.16,1.487,1.487,0,0,0,.562-.213l.063-.007.01.113.11-.01.113-.063c0,.033.04.05.116.043l.01.113a1.008,1.008,0,0,1-.186.505,2.627,2.627,0,0,0-.385.858l0,.053.11-.01a6.973,6.973,0,0,0,1.09-1.572,17.423,17.423,0,0,0,3.2-1.206,2.993,2.993,0,0,0,1.692-.582l-.007-.06-.279.083-.063.007-.007-.06a2.521,2.521,0,0,0,1.13-.369q1.59-1.226,2.4-1.738a6.285,6.285,0,0,0,2.167-2.39c.06-.013.12-.027.186-.043A2.431,2.431,0,0,0,12.37,9.3c-.007-.03.007-.046.037-.053.249-.027.13.017.289-.02l.419-.1.07-.017-.033.02a.408.408,0,0,0,.153-.01l.03.123-1.9,3.028-.422.528L10.8,13.5l.04-.01.206-.086-.066.269.02.08.057.07c-.027.007-.037.023-.03.053l.01.043.086-.02q.189-.165.16-.3a.788.788,0,0,0,.273.02l.01.043c-.083.02-.126.086-.133.2l.01.043.047-.01c.691-.754,2.386-3.337,3.746-5.088q-.065-.284,2.127-.791L17.408,8a4.486,4.486,0,0,1-.339,1.665,4.486,4.486,0,0,0-.253.871,6.665,6.665,0,0,0-.329,1.15l-.518,1.7a15.5,15.5,0,0,0-.771,2.749.338.338,0,0,1,.143.013l.073-.063a.041.041,0,0,0,.057.033L15.441,16l.226-.007c.066-.017.123-.1.169-.253-.01-.229.037-.352.14-.379a3.671,3.671,0,0,1,.256-.828,3.67,3.67,0,0,1,.289-.927c.2-.7.339-1.067.432-1.09l.02.086-.143.369a18.078,18.078,0,0,1-.758,2.622l.073.319.046-.01A68.125,68.125,0,0,0,18.861,8a1.031,1.031,0,0,1,.5-.8l-.066-.07-.01-.037a.454.454,0,0,0,.279-.156c-.007-.03-.123-.073-.349-.133l.578-2.479a.859.859,0,0,1,.223-.173l.01.126a.309.309,0,0,0-.13.057L20,4.49a3.559,3.559,0,0,1,.651-.558c.12.033.179.073.186.113l.086-.007A7.044,7.044,0,0,1,22.862,3l.007.083q-.174.264-.239.269a.362.362,0,0,0,.053.16,15.154,15.154,0,0,1-.861,2.2,59.712,59.712,0,0,1-3.367,6.973.309.309,0,0,0,.06.123,1.078,1.078,0,0,0,.422-.163l.04,0,.007.083.093-.007.083-.043q.005.035.09.03l.007.09a.756.756,0,0,1-.143.379,1.894,1.894,0,0,0-.3.648l0,.043.086-.007a5.251,5.251,0,0,0,.827-1.2,13.393,13.393,0,0,0,2.426-.914,2.279,2.279,0,0,0,1.29-.442l0-.043-.216.063-.046,0,0-.043a1.913,1.913,0,0,0,.857-.276c.8-.618,1.412-1.06,1.825-1.32C27.14,8.754,27.738,7.857,27.665,7Zm-.219.057.03.336c-.04.083-.083.126-.123.13l-.05-.572c.093.033.14.066.143.106ZM2.28,4.347l-.056,0-.01-.1.229-.02,0,.053a.441.441,0,0,0-.166.067Zm-1.12,11.2A.711.711,0,0,0,.8,15.477l-.013-.163c-.007-.063.03-.106.11-.123s.116.047.123.153a2.418,2.418,0,0,1,.319-.359l.123.05c-.04.332-.143.5-.306.515ZM13.128,3.031c-.057.007-.17-.169-.332-.518l-.01-.1c.106-.01.216.163.332.518l.01.1Zm-.16-1.24-.047.11L11.3,1.223q1.625.055,1.672.568ZM6.105,7.684l-.229.02-.01-.1.229-.02.01.1Zm-.186-3.54.057,0,.013.163c-.053,0-.123.083-.209.236l-.01-.113c.1-.123.156-.216.15-.282ZM5.437,5.281l.02.216L5.4,5.5l-.02-.216.056,0Zm-.253.406.11-.01c-.01.179-.06.276-.15.282l-.057,0a.522.522,0,0,0,.1-.276ZM5,6.251l.063-.007,0,.053-.1.173-.11.01,0-.053A.143.143,0,0,0,5,6.251Zm-.186.509-.033.272-.057,0L4.7,6.767l.113-.007Zm-1.865,5.3c-.073.372-.153.562-.236.568l0-.053a.6.6,0,0,1,.239-.515ZM2.6,12.8l0,.053a.1.1,0,0,1-.1.12l0-.053q-.01-.095.1-.12Zm-.1,1.539.173-.017.007.06a.446.446,0,0,0-.17.066l-.11.01c-.007-.057.03-.1.1-.12Zm4.919-1.519A9.119,9.119,0,0,0,5.71,13.8q-1.575.548-1.562.681a17.119,17.119,0,0,0-1.845.811.664.664,0,0,1-.3-.08.489.489,0,0,1,.253-.465.982.982,0,0,1,.469.073,4.558,4.558,0,0,1,.9-.3l-.01-.113-.346.03a4.7,4.7,0,0,1,1-.469l.173-.017,0,.053c-.3.027-.459.113-.5.269.007.07.046.1.12.093.223-.14.332-.223.329-.246A18.468,18.468,0,0,0,7.9,12.29l.01.1c0,.05-.16.189-.489.429Zm-2.931.964a1.131,1.131,0,0,0,.718-.332c.08-.007.123.023.126.093a2.556,2.556,0,0,0-.781.346l-.057,0-.007-.11Zm4.729-3.633L7.754,11.316A14.509,14.509,0,0,1,5.992,12.4a13.282,13.282,0,0,1-3.234,1.486l-.063.007q.08-.294,2.32-4.746a12.65,12.65,0,0,0,3.107-.921l.346-.03a1.993,1.993,0,0,1,1.6.409l.02.216c-.263.761-.555,1.206-.871,1.336ZM6.354,8.541l.236-.02,0,.053-.236.02,0-.053ZM9.668,7.98l.173-.017c.16.076.243.143.249.2l0,.053a.485.485,0,0,1-.425-.239Zm.469-2.669a6.765,6.765,0,0,1-1.256.934,16.23,16.23,0,0,0-2.523.984.461.461,0,0,0-.233-.04l-.01-.1A1.36,1.36,0,0,1,6.4,6.295c.113-.6.236-.941.372-1.024L7.983,2.543q-.02-.254.778-.389l.173-.017.013.156c.522-.08.847-.126.974-.136.964-.083,1.466.113,1.506.582l.11-.01-.023-.276.12-.01a.755.755,0,0,1,.455.568.885.885,0,0,1-.246.568c-.073.007-.116-.047-.123-.153l-.12.01-.027.332q-.733,1.1-1.063,1.127c-.2.276-.322.412-.372.415Zm.745,1.911a.43.43,0,0,0-.239-.093l-.013-.163.11-.01.243.143a.1.1,0,0,1-.1.123Zm.771.914c.106.043.169.09.183.133l-.053.013,0,0a.117.117,0,0,0-.033.007l-.08.063-.02-.219Zm.073.459-.01-.043.14-.033.01.043-.14.033Zm.336.376c.143-.023.213-.033.479-.093l.01.043-.505.116a.666.666,0,0,0,.017-.066Zm.492.209a2.163,2.163,0,0,0-.505.07l-.01-.043.425-.136.2-.046.02.08c-.093.02-.027.02-.133.076ZM13,9.073a.091.091,0,0,1-.113-.066l.13-.03a.079.079,0,0,1,.106.067L13,9.073Zm1.216-1.309-.01-.043.209-.05.02.08-.219.013Zm1.3,7.97a.329.329,0,0,0,.01-.133l.047-.01a.075.075,0,0,1,.1.06l.01.043-.17.04Zm.911-7.627-.093-.017a2.632,2.632,0,0,1-.379.126l-.086.02a.085.085,0,0,1-.11-.06l.608-.14.2-.093.067.076a.445.445,0,0,0-.206.086Zm.469-.15-.01-.043A.254.254,0,0,0,17,7.84l.432-.1.01.043a3.338,3.338,0,0,0-.545.173Zm.066-.874a.356.356,0,0,0-.12.073c-.007-.03-.066-.03-.179,0-.02-.083.3-.2.96-.352l.093-.02.02.08c-.465.136-.725.213-.774.223Zm1.163-1.256c-.046.528-.233.827-.562.9l-.01-.043-.292.113-.13.03a.326.326,0,0,1-.179,0l-.027-.116A17.59,17.59,0,0,1,18.2,4.959l.1.017a1.816,1.816,0,0,1-.169.851Zm2.057-1.762-.04,0-.007-.083.173-.017,0,.043a.56.56,0,0,0-.13.053Zm-.848,8.512a.532.532,0,0,0-.266-.06l-.01-.126q-.005-.065.08-.09c.057-.007.09.033.1.12a1.458,1.458,0,0,1,.239-.276l.09.037c-.033.253-.11.385-.229.4Zm9.086-9.505c-.043,0-.126-.13-.256-.4l-.007-.083c.083-.007.17.123.256.389l.007.093ZM28.3,2.12l-.04.086-1.23-.515c.821.027,1.246.17,1.27.429ZM23.088,6.6l-.173.017-.007-.083.173-.017.007.083Zm-.143-2.689.046,0,.01.126q-.065.005-.16.179l-.007-.083a.385.385,0,0,0,.11-.219Zm-.362.864.013.163-.047,0-.013-.163.046,0Zm-.2.309.086-.007q-.015.209-.11.219l-.047,0a.451.451,0,0,0,.07-.216Zm-.14.425.04,0,0,.043-.076.133-.086.007,0-.043c.09-.007.13-.053.123-.136Zm-.14.385-.03.213-.04,0L22.021,5.9l.086-.007ZM20.689,9.924q-.085.419-.179.429l0-.037a.476.476,0,0,1,.183-.392Zm-.263.562,0,.037a.076.076,0,0,1-.08.1l0-.043q-.005-.065.08-.09Zm-.073,1.17.133-.01,0,.043a.382.382,0,0,0-.13.05l-.086.007q-.005-.07.08-.09ZM24.085,10.5a7.758,7.758,0,0,0-1.3.735c-.8.279-1.193.452-1.186.522a12.6,12.6,0,0,0-1.393.615.518.518,0,0,1-.229-.063.354.354,0,0,1,.193-.346.75.75,0,0,1,.356.053,3.861,3.861,0,0,1,.688-.223l-.007-.083-.269.023a3.568,3.568,0,0,1,.764-.359l.133-.01,0,.037c-.226.02-.352.086-.379.206a.073.073,0,0,0,.093.073c.166-.11.246-.173.246-.193A13.6,13.6,0,0,0,24.451,10.1l.007.083c0,.033-.123.14-.372.322Zm-2.227.731a.892.892,0,0,0,.552-.249c.057,0,.09.02.093.073a2.112,2.112,0,0,0-.592.253l-.046,0-.007-.08Zm3.6-2.762-1.107.891A10.758,10.758,0,0,1,23,10.183a9.9,9.9,0,0,1-2.456,1.127l-.046,0q.06-.224,1.765-3.6a9.724,9.724,0,0,0,2.356-.7l.269-.023A1.5,1.5,0,0,1,26.1,7.3l.013.163c-.2.572-.422.907-.661,1.01ZM23.281,7.249l.173-.017,0,.043-.173.017,0-.043ZM25.8,6.82l.133-.01c.123.06.186.113.189.156l0,.037A.372.372,0,0,1,25.8,6.82ZM26.146,4.8a5.085,5.085,0,0,1-.947.711,12.718,12.718,0,0,0-1.914.741.437.437,0,0,0-.176-.023L23.1,6.142a1.043,1.043,0,0,1,.209-.6c.086-.459.183-.715.282-.774l.927-2.074c-.01-.123.186-.223.585-.3l.133-.01.01.126q.588-.095.738-.11c.731-.063,1.113.083,1.143.442l.086-.007-.017-.2.086-.007a.552.552,0,0,1,.339.422.688.688,0,0,1-.176.435c-.057.007-.09-.033-.1-.12l-.086.007-.027.249c-.369.562-.638.851-.808.864-.15.2-.243.306-.286.309Zm.389,1.383-.01-.126.086-.007.186.113a.078.078,0,0,1-.08.09.341.341,0,0,0-.183-.07ZM11.064,14.251l-.086.02-.073.063a.075.075,0,0,0,.1.06c.056-.013.08-.046.066-.1l-.01-.043Zm-.329-.655.01.043c.057-.013.08-.046.067-.1L10.8,13.5a.078.078,0,0,0-.066.1Zm2.353-4.42.063-.04a.1.1,0,0,1-.033-.007.038.038,0,0,0-.03.046ZM13.075,8.03l.1-.023-.02-.086-.1.023.02.086Zm23.487,3.357-.226-.027-.04.086,0,.043,1.346-.113-.007-.083-1.077.093Zm1.23-.1.007.083h.013l-.007-.083Zm5.647-.738.007.083.146.027-.007-.083-.146-.027Zm-.206.017a5.607,5.607,0,0,1-1.349.2l.007.083.093-.007.05,0-.013-.01.11-.043c1-.11,1.117-.07,1.107-.183l0-.04ZM37.167,9.093l-.09-.03a1.5,1.5,0,0,0-.106.346l0,.037c.07,0,.133-.123.193-.352ZM35.95,8.438l0-.043-.046,0-.083.053.047.08c.063-.007.093-.037.086-.093Zm2.642,2.732-.007-.083-.027,0,.007.083.027,0Zm5.484-1.236.063-.007c.037,0,.053-.033.05-.086l-.037-.08a1.076,1.076,0,0,0-.522.133l0-.043-.276.027c-.007-.083-.03-.126-.066-.123l-.143.013c-.166.013-.246.007-.329.07,0-.03-.013-.043-.03-.043l-.16.013-.093.053c0-.03-.013-.043-.03-.043l-.057.05,0-.043-.223-.017-.053,0,.007.083.113.03.106-.007a.193.193,0,0,0,.123.027l.093-.046,0,.037a6.807,6.807,0,0,1-.877.166.152.152,0,0,0-.09-.037l-.007.007A.07.07,0,0,1,41.57,10l.186-.023a1.136,1.136,0,0,0,.126.033c.15-.073.156-.1.236-.11l-.007-.083a5.417,5.417,0,0,1-.947.09l-.03,0-.007-.083c.824-.1.548-.043.831-.123,0,.03.013.043.03.043a.194.194,0,0,1,.113-.057l.057,0a3.018,3.018,0,0,0,.957-.126l0,.037.093-.047.086-.007c-.007-.083.12-.1.163-.1l-.007-.09c-1,.2-1.266.146-1.545.226l0-.037a1.217,1.217,0,0,1-.339.03.176.176,0,0,0-.083.053c0-.03-.013-.043-.033-.043a.067.067,0,0,0-.017,0l-.851.14c0-.023-.013-.037-.033-.033a4.341,4.341,0,0,1-.914.163.278.278,0,0,0-.11.046c0-.023-.017-.036-.047-.033l-.362.03-.243.06c0-.023-.017-.037-.046-.033a1.93,1.93,0,0,1-.352.066h-.007c-.06.007.03-.017-.017-.036L38.38,10c-.106.01-.05-.007-.415,0-.641.08-.572.09-.641.093l-.239-.017a.033.033,0,0,1-.037.04c-.272-.037-.412-.08-.415-.13q.055-.389.189-.4l.047,0-.04.086.046,0c.086-.047.126-.09.123-.13l-.007-.09-.086.007L36.9,9.366a.3.3,0,0,1,.027-.166l.2-.316.007.083.093-.007-.007-.083L37.16,8.8a.339.339,0,0,1,.166-.1l0-.043-.126.01-.01-.126a3.556,3.556,0,0,0,.366-.917l.09.037c.057,0,.083-.037.08-.1l-.086.007,0-.037a.316.316,0,0,1,.033-.176.556.556,0,0,0,.186-.435c.027,0,.04.01.043.04.116-.066.206-.243.273-.535a16.719,16.719,0,0,0,.881-2.23,12.584,12.584,0,0,0,.8-2.642l-.086.007a.3.3,0,0,1-.033.17.342.342,0,0,0-.14-.033l0-.037a1.011,1.011,0,0,1,.216-.612l.04,0,.073.286L40,1.329a2.6,2.6,0,0,1,.066-.342c0-.043-.037-.07-.1-.073l-.083.053c-.007-.06,0-.216.007-.465l-.043,0a.324.324,0,0,1-.113-.183L39.26.369a.436.436,0,0,0-.053-.146c0-.043.1-.086.322-.13l.1.037.09-.053c0,.03.02.043.053.04l.09-.053c0,.03.02.043.053.04l.043,0L39.948,0c-.066.007-.243.007-.522,0l-.09.06,0-.053q-3.345.274-3.8.316c-.04,0-.2,0-.472-.007,0,.037-.03.057-.1.063l-.1-.043-.326.083A2.163,2.163,0,0,1,34.159.4a.331.331,0,0,1-.183.07c-.04,0,.475-.027.954-.06A.437.437,0,0,1,34.7.485a.32.32,0,0,1-.189-.033,5.4,5.4,0,0,1-.7.166l-.1-.037L32.151.821a.389.389,0,0,0-.209-.033,2.581,2.581,0,0,0-.415.09l-.751.312.056.093a.416.416,0,0,0,.153-.06l.266.023-.033.249a.67.67,0,0,0-.429.479c-.369.163-.552.279-.552.349l0,.043.056,0,.1-.053.116.14.017.193q.01.09-1.858,3.918c-1.077,2.459-1.642,3.805-1.695,4.048-.369.1-.582.253-.645.452.007.063.116.106.329.123l.01.1-.1.16.017.193q.015.15.808.229c0-.033.013-.053.05-.057a2.911,2.911,0,0,1-.1.7l.057,0a1.239,1.239,0,0,0,.312-.618l.046,0c.053,0,.11.057.176.186a7.92,7.92,0,0,0-.7,1.589l.057.093.057,0a11.714,11.714,0,0,1,.921-2.051q.962-.085,3.327-.339l.1-.06a.048.048,0,0,0,.06.047l.1-.01.1-.06a.048.048,0,0,0,.06.046l1.193-.1c.316-.027.465-.123.452-.286,0-.043.183-.093.558-.146a.456.456,0,0,1,.163.03c0-.03.186-.06.565-.093.01-.2.073-.306.186-.316l-.01-.1a1.651,1.651,0,0,0-.366.083,2.234,2.234,0,0,1-.475-.057.438.438,0,0,1-.153.06l-.831.027-.1.053q-.005-.045-.06-.04l-.047,0L33,10.489c0-.03-.09-.053-.263-.076l-.106.063-.206.017,0-.053Q34.023,10.265,34,10a.093.093,0,0,1,.113.1l.312-.08-.01-.1-2.562.07c0,.033-.013.053-.05.057l-.312-.027a.376.376,0,0,0-.2.07l-.116-.043a3.551,3.551,0,0,0-.721.116,4.54,4.54,0,0,0-.731.01l-.575.05-.266-.03a13.13,13.13,0,0,1,.994-2.5,2.178,2.178,0,0,1,.548-.941.387.387,0,0,1,.163.04L31,6.657l.209.033a4.8,4.8,0,0,0,1.23-.3.576.576,0,0,1,.266.023l.312-.073.931-.08A6.171,6.171,0,0,0,35.236,6l-.01-.1c-.173.017-.263-.013-.269-.083-.01-.13-.136-.183-.379-.163l-.01-.1.256-.073.671-.057-.01-.1c-.027,0-.163,0-.415-.01l-.01-.1.259-.023c.07-.007.1-.04.093-.106-.349.01-.525-.007-.528-.053a22.139,22.139,0,0,1-3.659.066.418.418,0,0,0-.153.067l-.063-.1A8.034,8.034,0,0,1,32.141,3a.6.6,0,0,1-.08.256l0,.043.1-.01c.256-.612.472-.927.651-.941.764-.067-.106-.116,1.529-.372a.319.319,0,0,0,.146.04q.962-.194,2.682-.405l-.007-.1-.611.057-.007-.1a.331.331,0,0,0,.183-.07l0,.053a.359.359,0,0,0,.14-.066.437.437,0,0,1,.243.03,3.538,3.538,0,0,1,.512-.1l.382-.037c.093-.06.136-.113.133-.163l0-.043a1.207,1.207,0,0,1-.336-.02.1.1,0,0,1,.086-.106l.711-.066L38.931.8c0,.037.02.05.046.05a.358.358,0,0,0,.14-.066c.017,0,.037,0,.053.007a2.656,2.656,0,0,0-.143.389l-.093.007a.407.407,0,0,0-.053-.17l-.047,0c-.864,2.406-1.25,3.526-2.047,5.374-.146.472-.269.735-.376.791a.073.073,0,0,0,.093.073,1.159,1.159,0,0,1-.163.688A6.9,6.9,0,0,1,35.6,9.695l.083.5a.078.078,0,0,1-.08.09l-.086.007c-.013-.14-.063-.206-.153-.2l-.047,0a1.976,1.976,0,0,0-.256.615l.086-.007a.288.288,0,0,0,.16-.269l.173-.017.1.037a.533.533,0,0,0-.11.3l.046.08-.113.266,0,.043a.54.54,0,0,1,.326.093A.582.582,0,0,0,36,11.137c.1-.01.472-.013,1.113-.013l.322-.11a7.457,7.457,0,0,0,.794-.023l.14-.013.073-.05,0,.043A2.18,2.18,0,0,1,39.1,11l0,.043-.2.017.007.083a.282.282,0,0,0,.156-.06c.05,0,.08.023.083.083a1.169,1.169,0,0,0-.269.06l-.086-.03c-.136.037-.106.046-.2.053l-.136-.027a.032.032,0,0,1-.033.04.072.072,0,0,0,.083.076l.14-.013.728-.063.276-.06c0,.023.013.037.037.033l.133-.05.249-.02c.193-.017.189-.03.608-.1,0-.027.007-.037.027-.04l0,.037a6.136,6.136,0,0,0,.834-.16l.01.02c.169-.04.073-.03.12-.063,0,.03.013.043.03.043l.12-.01-.007-.09-.243,0,0-.007-.027.007h-.033v.007a1.28,1.28,0,0,1-.273.02l-.608.033,0-.043.339-.046.123-.01.07-.05,0,.043a11.428,11.428,0,0,0,2.861-.392c.12-.01.11-.11.186-.316a.206.206,0,0,1-.116-.027,3.461,3.461,0,0,1-.631.093c-.03,0-.053-.023-.063-.076l0-.037.339.01a.856.856,0,0,0,.369-.12c0,.03-.07.046-.03.043ZM27.711,10.2l-.156.013A2.947,2.947,0,0,1,27.8,9.5l.1-.01a2.719,2.719,0,0,1-.2.708Zm.189-.758,0-.043c0-.053.03-.09.1-.106l0,.043c0,.063-.03.1-.1.106Zm2.077,1.605,0,.043-.259.023,0-.043.259-.023Zm-.312-.027c0,.053-.076.113-.249.173l-.319-.023-.1.01-.01-.1.681-.063Zm2.1-9.668-.156.013,0-.053c0-.053.027-.09.093-.106l.057,0,.106.043a.092.092,0,0,1-.1.106ZM34.142.884l.05,0,.007.1L34.056.99a.1.1,0,0,1,.086-.106Zm-.6.209-.236-.027,0-.043a2.551,2.551,0,0,0,.6-.113c0,.037.037.05.1.043l.007.1-.093.01a.319.319,0,0,1-.189-.033.406.406,0,0,1-.183.067Zm.3.861,0-.043.382-.037,0,.043-.382.037Zm.409-.332,0-.053.186-.017,0,.053-.186.017ZM34.292.97l-.05,0,.043-.1.425-.04,0,.053a2.568,2.568,0,0,0-.422.086Zm.216.917-.007-.1.186-.017q.095-.01.1.09l-.279.023ZM35.634.352,35.4.419l-.043,0a2.444,2.444,0,0,1-.432-.01c.309-.02.6-.043.715-.06Zm-.256,1.064,0,.043-.329.03,0-.043.329-.03Zm.538.256c0-.04-.067-.066-.2-.08l-.329.093-.253.01c-.057-.04-.086-.066-.09-.086l.292.017L36,1.519l.336.013,0,.053a1.884,1.884,0,0,0-.422.086ZM39.3.8c.04,0,.066,0,.076,0a1.273,1.273,0,0,1,.4-.266A2.338,2.338,0,0,1,39.214,1.7l-.186-.113A6.06,6.06,0,0,0,39.3.8Zm-.572.98.046,0c-.063.12-.12.183-.166.186l-.01-.126a.283.283,0,0,0,.13-.057Zm-.369.881a1.249,1.249,0,0,1,.256-.615l0,.043c-.046.332-.12.509-.216.522l.017.209a.472.472,0,0,0-.113.266l-.046,0L38.237,2.8c.053-.007.1-.053.126-.14Zm-.143.479a1.217,1.217,0,0,1-.1.346l-.046,0-.01-.126c.063-.146.116-.219.153-.223Zm-2.682,7.784,0-.037.086-.007.01.126c-.047,0-.08-.023-.093-.083Zm3.832.1c0-.03-.017-.043-.046-.04l-.216.02,0-.043h.02l.512-.043,0,.043a.448.448,0,0,0-.269.063Zm-.256-.106c.02.01.01.02,0,.027s-.023-.013,0-.027Zm.027-.6-.286.023,0-.043.259-.023.226-.057c0,.027.017.037.047.033.269-.046.243-.06.372-.07.043,0,.07.023.073.076l-.688.06Zm1-.086a1.138,1.138,0,0,0-.282-.02l0-.037.256-.023,0,.037c-.027,0,.07.01.027.043Zm.02-.046,0-.037.14-.013,0,.037-.14.013Zm.309-.027,0-.037a.241.241,0,0,0,.1-.053.1.1,0,0,1,.113.093l-.209,0Zm.4-.05,0-.043.169-.013,0,.043-.169.013Zm.236-.02c0-.05.017-.08.06-.086l.057.073a.031.031,0,0,1,.027-.04l.043.08-.186-.027Zm3.27-.385,0,0v0a.012.012,0,0,0,0,.007Zm.06-.043c.027-.017.04-.033-.023-.043-.03.033.033.043-.033.046l0,.03c.007-.007.023-.017.037-.027l-.037.03v0l-.07.09.14-.05h.017l-.007-.083-.027,0Zm.243.189-.027,0,.007.083.2-.017c0-.053-.133-.07-.176-.07Z"/>
</svg>
