<svg xmlns="http://www.w3.org/2000/svg" width="40" height="16.707" viewBox="0 0 40 16.707">
  <defs>
    <style>
      .cls-1 {
        fill: #2f2707;
      }

      .cls-2 {
        fill: #de4c36;
      }
    </style>
  </defs>
  <g id="git" transform="translate(0 -0.924)">
    <path id="Path_51" data-name="Path 51" class="cls-1" d="M131.192,28.724a1.359,1.359,0,0,0-1.53,1.467c0,.781.43,1.323,1.483,1.323a1.347,1.347,0,0,0,1.5-1.355,1.307,1.307,0,0,0-1.451-1.435Zm-1.754,7.318a1.413,1.413,0,0,0-.414.845c0,.637.813.829,1.929.829.925,0,2.184-.065,2.184-.924,0-.511-.606-.543-1.372-.591l-2.327-.159Zm4.719-7.27a2.529,2.529,0,0,1,.59,1.61c0,1.769-1.387,2.805-3.4,2.805a5.067,5.067,0,0,1-1.26-.143l-.526.845,1.562.1c2.758.176,4.384.256,4.384,2.375,0,1.834-1.61,2.869-4.384,2.869-2.885,0-3.985-.733-3.985-1.993a2.063,2.063,0,0,1,.877-1.626,1.062,1.062,0,0,1-.7-1.051,1.429,1.429,0,0,1,.463-.973c.287-.3.606-.606.988-.956a2.546,2.546,0,0,1-1.371-2.392c0-1.833,1.212-3.092,3.65-3.092a5.464,5.464,0,0,1,1.467.159h3.109V28.66l-1.467.112Z" transform="translate(-107.22 -22.114)"/>
    <path id="Path_52" data-name="Path 52" class="cls-1" d="M188.1,3.761a1.309,1.309,0,0,1-1.435-1.436,1.443,1.443,0,0,1,2.886,0A1.314,1.314,0,0,1,188.1,3.761Zm-2.057,9.58V12.083l.813-.111c.223-.032.255-.08.255-.319V6.965c0-.175-.048-.287-.208-.334l-.861-.3.175-1.291h3.3v6.615c0,.256.015.287.255.319l.813.111v1.259Z" transform="translate(-156.887 0)"/>
    <path id="Path_53" data-name="Path 53" class="cls-1" d="M220.518,20.889a6.376,6.376,0,0,1-2.6.637c-1.9,0-2.614-.764-2.614-2.567V14.783c0-.1,0-.159-.128-.159h-1.116V13.2c1.4-.16,1.961-.861,2.136-2.6h1.515V12.87c0,.111,0,.159.128.159h2.248v1.594h-2.375v3.81c0,.941.224,1.307,1.084,1.307a3.8,3.8,0,0,0,1.291-.255l.431,1.4" transform="translate(-180.518 -8.165)"/>
    <path id="Path_54" data-name="Path 54" class="cls-2" d="M16.38,8.611,9.091,1.323a1.075,1.075,0,0,0-1.52,0L6.057,2.836l1.92,1.92A1.277,1.277,0,0,1,9.594,6.384l1.85,1.85a1.278,1.278,0,1,1-.766.721L8.952,7.23v4.541a1.293,1.293,0,0,1,.338.242,1.278,1.278,0,1,1-1.39-.279V7.15a1.264,1.264,0,0,1-.419-.279,1.279,1.279,0,0,1-.276-1.4L5.313,3.58l-5,5a1.075,1.075,0,0,0,0,1.521L7.6,17.387a1.075,1.075,0,0,0,1.521,0l7.255-7.255a1.076,1.076,0,0,0,0-1.521" transform="translate(0 -0.071)"/>
  </g>
</svg>
