<svg xmlns="http://www.w3.org/2000/svg" width="26" height="25.76" viewBox="0 0 26 25.76">
  <defs>
    <style>
      .cls-1 {
        fill: #21609b;
        fill-rule: evenodd;
      }
    </style>
  </defs>
  <g id="Group_4" data-name="Group 4" transform="translate(-614 -1220.339)">
    <g id="Group_3" data-name="Group 3" transform="translate(614 1220.339)">
      <g id="Group_2" data-name="Group 2" transform="translate(0 0)">
        <path id="Path_16" data-name="Path 16" class="cls-1" d="M26.377,29.366l-.116.3A11.381,11.381,0,0,1,15.751,36,14.69,14.69,0,0,1,9.717,34.8a15.586,15.586,0,0,1-7.241-6.839C.4,23.941.029,18.354,4.341,14.18c.066,0-.523.9-.457.9l-.119.386C.658,25.2,10.232,33.537,19.539,32.584a12.224,12.224,0,0,0,6.839-3.218" transform="translate(-0.981 -10.246)"/>
        <path id="Path_17" data-name="Path 17" class="cls-1" d="M39.514,18.738a8.9,8.9,0,0,0,6.235-2.615c-1.267,3.216-4.936,5.284-9.856,4.626a10.613,10.613,0,0,1-8.448-8.85c-.3-3.023.758-4.827,2.494-7.015a7.341,7.341,0,0,0-.885,2.59c-.66,6.539,5.224,11.23,10.459,11.264" transform="translate(-19.749 -3.64)"/>
        <path id="Path_18" data-name="Path 18" class="cls-1" d="M61.915,7.565a7.339,7.339,0,0,1-3.385,2.609,6.449,6.449,0,0,1-7.241-2.935,9.05,9.05,0,0,1-.581-1.307c-.477-1.621-.258-4.073,1.165-5.342a6.678,6.678,0,0,0-.265,3.52,7.813,7.813,0,0,0,.969,2.118,5.57,5.57,0,0,0,2.213,1.955,5.884,5.884,0,0,0,1.112.533c.923.271,2.872.988,6.014-1.151" transform="translate(-36.151 -0.589)"/>
      </g>
    </g>
  </g>
</svg>
