<svg xmlns="http://www.w3.org/2000/svg" width="30" height="26.087" viewBox="0 0 30 26.087">
  <g id="icons8-material-ui" transform="translate(-1 -5)">
    <path id="Path_172" data-name="Path 172" d="M1,5,4.913,7.609V20.652L1,18.043Z" fill="#29b6f6"/>
    <path id="Path_173" data-name="Path 173" d="M44.913,20,41,22.609v8.478l3.913-2.609Z" transform="translate(-13.913 -5.217)" fill="#0288d1"/>
    <path id="Path_174" data-name="Path 174" d="M44.913,6,41,8.609v4.565l3.913-2.609Z" transform="translate(-13.913 -0.348)" fill="#0288d1"/>
    <path id="Path_175" data-name="Path 175" d="M32.913,5,29,7.609V20.652l3.913-2.609Z" transform="translate(-9.739)" fill="#0288d1"/>
    <path id="Path_176" data-name="Path 176" d="M1,9.565l11.087,7.174V12.174L1,5Z" fill="#29b6f6"/>
    <path id="Path_177" data-name="Path 177" d="M29.087,9.565,18,16.739V12.174L29.087,5Z" transform="translate(-5.913)" fill="#0288d1"/>
    <path id="Path_178" data-name="Path 178" d="M29.087,23.565,18,30.739V26.174L29.087,19Z" transform="translate(-5.913 -4.87)" fill="#0288d1"/>
    <path id="Path_179" data-name="Path 179" d="M41.087,31.565,30,38.739V34.174L41.087,27Z" transform="translate(-10.087 -7.652)" fill="#0288d1"/>
    <path id="Path_180" data-name="Path 180" d="M25.826,35.064,18,30v4.565l7.826,5.064Z" transform="translate(-5.913 -8.696)" fill="#29b6f6"/>
  </g>
</svg>
