<svg id="redux-seeklogo.com" xmlns="http://www.w3.org/2000/svg" width="30" height="28.48" viewBox="0 0 30 28.48">
  <defs>
    <style>
      .cls-1 {
        fill: #764abc;
      }
    </style>
  </defs>
  <path id="Path_3" data-name="Path 3" class="cls-1" d="M20.787,19.891a2.144,2.144,0,0,0-.229-4.276h-.076a2.136,2.136,0,0,0-2.062,2.214,2.192,2.192,0,0,0,.611,1.413,13.656,13.656,0,0,1-6.261,5.994,10.324,10.324,0,0,1-6.223,1.184,5.307,5.307,0,0,1-3.894-2.252,5.608,5.608,0,0,1-.305-5.918,8.987,8.987,0,0,1,2.6-3.054c-.153-.5-.382-1.336-.5-1.947-5.536,4.009-4.963,9.43-3.283,11.988a7.906,7.906,0,0,0,6.643,3.092,9.385,9.385,0,0,0,2.291-.267A14.65,14.65,0,0,0,20.787,19.891Zm6.719-4.734A15.5,15.5,0,0,0,15.442,9.888h-.611a2.1,2.1,0,0,0-1.871-1.145h-.076a2.139,2.139,0,0,0,.076,4.276h.076a2.15,2.15,0,0,0,1.871-1.3h.687A14.55,14.55,0,0,1,23.726,14.2a10.227,10.227,0,0,1,4.047,4.887,5.292,5.292,0,0,1-.076,4.5,5.6,5.6,0,0,1-5.23,3.131,9.764,9.764,0,0,1-3.741-.8c-.42.382-1.183.993-1.718,1.374a11.784,11.784,0,0,0,4.925,1.184,8.287,8.287,0,0,0,7.406-4.047C30.445,22.219,30.369,18.4,27.506,15.157ZM8.112,20.54A2.144,2.144,0,0,0,10.25,22.6h.076a2.139,2.139,0,0,0-.076-4.276h-.076a.65.65,0,0,0-.267.038A13.989,13.989,0,0,1,7.921,9.888,10.242,10.242,0,0,1,10.174,3.97a6.622,6.622,0,0,1,4.7-2.138c4.047-.076,5.765,4.963,5.879,6.987.5.115,1.336.382,1.909.573C22.2,3.207,18.382,0,14.717,0A8.637,8.637,0,0,0,6.852,6.147,15.618,15.618,0,0,0,8.38,19.432,1.715,1.715,0,0,0,8.112,20.54Z" transform="translate(0)"/>
</svg>
