<svg xmlns="http://www.w3.org/2000/svg" width="30" height="30" viewBox="0 0 30 30">
  <g id="carré" transform="translate(5437.214 2277.631)">
    <g id="Group_218" data-name="Group 218" transform="translate(-5437.214 -2277.631)">
      <g id="Group_215" data-name="Group 215" transform="translate(0 0)">
        <path id="Path_149" data-name="Path 149" d="M73.786,43.368a15,15,0,1,1-15-15A15,15,0,0,1,73.786,43.368Z" transform="translate(-43.786 -28.369)"/>
        <path id="Path_150" data-name="Path 150" d="M78.971,49.112a5.382,5.382,0,0,0-3.844,2.054,12.962,12.962,0,0,0-2.351,4.328c-.94-.771-1.664-1.768-3.173-2.2a3.878,3.878,0,0,0-3.516.642A3.151,3.151,0,0,0,65.011,55.5a3.545,3.545,0,0,0,.9,3.25l.922.987a1.4,1.4,0,0,1,.424,1.423,1.7,1.7,0,0,1-2.164,1c-.435-.133-1.06-.457-.92-.913a3.963,3.963,0,0,1,.263-.487,2.346,2.346,0,0,0,.117-.3,1.22,1.22,0,0,0-.687-1.528,1.023,1.023,0,0,0-1.4.71c-.261.849.145,2.39,2.322,3.06,2.55.785,4.707-.6,5.013-2.414.193-1.134-.32-1.977-1.257-3.06l-.765-.846a1.394,1.394,0,0,1-.143-1.857,1.64,1.64,0,0,1,1.923-.473c1.377.373,1.991,1.329,3.015,2.1-.422,1.387-.7,2.779-.949,4.028l-.154.931c-.732,3.839-1.291,5.947-2.743,7.157a2.355,2.355,0,0,1-1.341.542.386.386,0,0,1-.442-.317c-.007-.231.188-.338.318-.442a.8.8,0,0,0,.468-.844,1.273,1.273,0,0,0-1.367-1.215,1.585,1.585,0,0,0-1.47,1.608c.035,1.061,1.024,1.856,2.514,1.805a6.02,6.02,0,0,0,4.33-2.435A15.174,15.174,0,0,0,74.77,59.83l.48-2.647c.265.032.551.053.86.061,2.542.054,3.813-1.262,3.832-2.22a1.037,1.037,0,0,0-.931-1.137,1.06,1.06,0,0,0-1.006.818c-.117.534.809,1.016.086,1.485a4.036,4.036,0,0,1-2.731.376l.236-1.3c.481-2.471,1.075-5.51,3.326-5.584.164-.008.764.007.778.4,0,.132-.029.167-.184.47a1.073,1.073,0,0,0-.21.67,1.056,1.056,0,0,0,1.2,1.021,1.293,1.293,0,0,0,1.18-1.4C81.644,49.752,80.493,49.062,78.971,49.112Z" transform="translate(-57.412 -43.562)" fill="#fff"/>
      </g>
    </g>
  </g>
</svg>
