<svg xmlns="http://www.w3.org/2000/svg" width="30" height="33.945" viewBox="0 0 30 33.945">
  <g id="Group_1" data-name="Group 1" transform="translate(-886 -973.195)">
    <g id="webpack-seeklogo.com" transform="translate(886 973.195)">
      <path id="Path_4" data-name="Path 4" d="M15,.048,30,8.533V25.509L15,33.994,0,25.509V8.533Z" transform="translate(0 -0.048)" fill="#fff"/>
      <path id="Path_5" data-name="Path 5" d="M40.576,42.383l-11.6,6.551V43.839l7.232-3.97Zm.794-.714V27.981l-4.244,2.442v8.8Zm-25.023.714,11.6,6.545V43.834l-7.232-3.965-4.371,2.514Zm-.794-.714V27.981L19.8,30.423v8.8l-4.244,2.442Zm.494-14.574,11.9-6.711v4.928l-7.626,4.181-.061.033-4.216-2.431Zm24.823,0-11.9-6.711v4.928L36.594,29.5l.061.033,4.216-2.436Z" transform="translate(-13.488 -17.683)" fill="#8ed6fb"/>
      <path id="Path_6" data-name="Path 6" d="M67.714,85.624l-6.371-3.461V75.315l6.371,3.627v6.681Zm.913,0L75,82.168V75.315l-6.371,3.627Zm-6.857-11.1,6.4-3.47,6.4,3.47-6.4,3.642-6.4-3.642Z" transform="translate(-53.196 -61.622)" fill="#1c78c0"/>
    </g>
  </g>
</svg>
