<svg xmlns="http://www.w3.org/2000/svg" width="60" height="34.369" viewBox="0 0 60 34.369">
  <g id="eye" transform="translate(0 -12.644)">
    <path id="Path_154" data-name="Path 154" d="M51.751,21.681a30.937,30.937,0,0,0-43.7,0L0,29.729l8.248,8.248a30.937,30.937,0,0,0,43.7,0L60,29.928ZM50.518,36.543a28.91,28.91,0,0,1-40.837,0L2.866,29.729l6.615-6.615a28.91,28.91,0,0,1,40.837,0l6.815,6.815Z" fill="#2e8bd9"/>
    <path id="Path_155" data-name="Path 155" d="M28.572,21.57a7.008,7.008,0,0,0-7,7,1,1,0,0,0,2,0,5.006,5.006,0,0,1,5-5,1,1,0,0,0,0-2Z" transform="translate(0.337 0.158)" fill="#2e8bd9"/>
    <path id="Path_156" data-name="Path 156" d="M29.572,16.57a13.231,13.231,0,1,0,13,13.229A13.131,13.131,0,0,0,29.572,16.57Zm0,24.422a11.2,11.2,0,1,1,11-11.194A11.111,11.111,0,0,1,29.572,40.992Z" transform="translate(0.399 0)" fill="#2e8bd9"/>
  </g>
</svg>
