<svg xmlns="http://www.w3.org/2000/svg" xmlns:xlink="http://www.w3.org/1999/xlink" width="30" height="22.126" viewBox="0 0 30 22.126">
  <defs>
    <clipPath id="clip-path">
      <path id="Path_56" data-name="Path 56" d="M0,.39H30V22.516H0Z"/>
    </clipPath>
  </defs>
  <g id="Creative_Cloud" transform="translate(0 -0.39)" clip-path="url(#clip-path)">
    <path id="Path_55" data-name="Path 55" d="M30,10.957v.988c-.009.054-.021.106-.027.16-.051.43-.084.862-.155,1.288a10.541,10.541,0,0,1-1.47,3.865,10.992,10.992,0,0,1-4.557,4.129,10.659,10.659,0,0,1-3.515,1.037c-.272.031-.543.06-.815.089H8.922a1.319,1.319,0,0,0-.16-.029,8.988,8.988,0,0,1-3.06-.736,9.334,9.334,0,0,1-4.739-4.5,8.86,8.86,0,0,1-.875-2.914q-.045-.37-.088-.74v-.958a1.281,1.281,0,0,0,.029-.16A8.828,8.828,0,0,1,.605,9.8,9.329,9.329,0,0,1,5.278,4.663a9.154,9.154,0,0,1,3.659-.946,10.164,10.164,0,0,1,1.88.086.237.237,0,0,0,.177-.058,11.113,11.113,0,0,1,3.072-2.226A10.75,10.75,0,0,1,17.6.478c.291-.033.583-.061.875-.091h.9c.059.009.118.02.177.026.445.052.893.084,1.334.158A10.57,10.57,0,0,1,24.724,2.03a10.992,10.992,0,0,1,4.148,4.565,10.634,10.634,0,0,1,1.038,3.518c.032.282.06.563.089.845M13.226,4.566c.018.024.022.035.03.039A12,12,0,0,1,15.019,5.67a.185.185,0,0,0,.164-.012,6.924,6.924,0,0,1,9.21,1.585,6.548,6.548,0,0,1,1.357,5.336A6.841,6.841,0,0,1,24.086,16.1a6.7,6.7,0,0,1-6.146,2.253,6.489,6.489,0,0,1-3.858-1.922c-1.373-1.386-2.754-2.764-4.131-4.146a1.114,1.114,0,0,0-.652-.365,1.036,1.036,0,0,0-1.08.588.955.955,0,0,0,.231,1.167c1.535,1.506,3.056,3.027,4.588,4.535a7.409,7.409,0,0,0,.842.716,8.054,8.054,0,0,0,3.749,1.444,9.045,9.045,0,0,0,3.194-.126A9.009,9.009,0,0,0,27.8,12.66a8.842,8.842,0,0,0-.082-2.9,8.611,8.611,0,0,0-2.026-4.152A8.8,8.8,0,0,0,18.1,2.55a8.434,8.434,0,0,0-3.3.971,8.712,8.712,0,0,0-1.569,1.045m-.74,15.846-.124-.116c-.627-.592-1.258-1.181-1.878-1.781a.508.508,0,0,0-.4-.169,7.606,7.606,0,0,1-1.875-.122A5.247,5.247,0,0,1,10.29,7.942a5.086,5.086,0,0,1,2.843,1.472c.961.993,1.952,1.957,2.923,2.939a.873.873,0,0,0,.782.282A.983.983,0,0,0,17.693,12a.935.935,0,0,0-.217-1.037C16.456,9.931,15.46,8.871,14.4,7.882a6.964,6.964,0,0,0-7.17-1.674A7.277,7.277,0,0,0,9.444,20.42h2.874c.047,0,.095,0,.168-.008" transform="translate(0 0.002)" fill="#da1f26"/>
  </g>
</svg>
