<svg id="bootstrap-seeklogo.com" xmlns="http://www.w3.org/2000/svg" width="30" height="30" viewBox="0 0 30 30">
  <defs>
    <style>
      .cls-1 {
        fill: #563d7c;
      }

      .cls-2 {
        fill: #fff;
      }
    </style>
  </defs>
  <path id="Path_1" data-name="Path 1" class="cls-1" d="M0,26.132A3.868,3.868,0,0,0,3.868,30H26.132A3.868,3.868,0,0,0,30,26.132V3.868A3.868,3.868,0,0,0,26.132,0H3.868A3.868,3.868,0,0,0,0,3.868Z"/>
  <path id="Path_2" data-name="Path 2" class="cls-2" d="M76.069,57.852V53.6h3.74a5.823,5.823,0,0,1,1.03.089,2.574,2.574,0,0,1,.878.318,1.694,1.694,0,0,1,.611.636,2.111,2.111,0,0,1,.229,1.043,1.922,1.922,0,0,1-.687,1.654,2.872,2.872,0,0,1-1.755.509ZM72.075,50.5V68.664h8.8a9.288,9.288,0,0,0,2.379-.305,6.36,6.36,0,0,0,2.061-.941,4.636,4.636,0,0,0,1.437-1.641,5.552,5.552,0,0,0-.293-5.291,4.366,4.366,0,0,0-2.506-1.692,4.527,4.527,0,0,0,1.844-1.5A3.979,3.979,0,0,0,86.423,55,4.872,4.872,0,0,0,86,52.866a3.49,3.49,0,0,0-1.183-1.386,5.108,5.108,0,0,0-1.832-.75,11.312,11.312,0,0,0-2.366-.229Zm3.994,15.06V60.574h4.35a3.366,3.366,0,0,1,2.086.6,2.349,2.349,0,0,1,.789,2,2.5,2.5,0,0,1-.242,1.17,1.92,1.92,0,0,1-.649.725,2.747,2.747,0,0,1-.941.382,5.33,5.33,0,0,1-1.119.114Z" transform="translate(-63.629 -44.582)"/>
</svg>
