<svg id="jest-seeklogo.com" xmlns="http://www.w3.org/2000/svg" width="27.164" height="30" viewBox="0 0 27.164 30">
  <defs>
    <style>
      .cls-1 {
        fill: #c63d14;
      }

      .cls-2 {
        fill: #fff;
      }
    </style>
  </defs>
  <path id="Path_19" data-name="Path 19" class="cls-1" d="M31.238,20.516a2.792,2.792,0,0,0-2.792-2.792,2.822,2.822,0,0,0-.293.015L31.987,6.427h-16.3l3.83,11.3c-.056,0-.113-.006-.17-.006a2.793,2.793,0,0,0-.848,5.453,12.2,12.2,0,0,1-2.2,2.763,11.181,11.181,0,0,1-3.913,2.429,3.56,3.56,0,0,1-1.784-4.532c.082-.193.166-.388.246-.583a2.793,2.793,0,1,0-2.24-.433,21.572,21.572,0,0,0-2.024,5.129c-.379,2.288,0,4.716,1.977,6.087,4.608,3.193,9.609-1.98,14.883-3.28,1.911-.471,4.009-.4,5.693-1.371a4.768,4.768,0,0,0,2.335-3.309,4.97,4.97,0,0,0-.891-3.773,2.781,2.781,0,0,0,.649-1.79Zm-9.1.01s0-.007,0-.01A2.791,2.791,0,0,0,20.8,18.127l3.048-6.164L26.9,18.192a2.789,2.789,0,0,0-1.244,2.324c0,.02,0,.04,0,.061l-3.514-.051Z" transform="translate(-5.775 -5.745)"/>
  <path id="Path_20" data-name="Path 20" class="cls-2" d="M26.145,14.771a3.479,3.479,0,0,0-2.832-3.414L27.164,0H8.963l3.856,11.38a3.473,3.473,0,0,0-1.077,6.341,11.641,11.641,0,0,1-1.68,1.978,10.529,10.529,0,0,1-3.386,2.175,2.845,2.845,0,0,1-1.215-3.515l.042-.1.08-.188a3.477,3.477,0,1,0-3.578-.808c-.116.247-.238.5-.363.756a15,15,0,0,0-1.5,4.075c-.5,3,.305,5.4,2.262,6.759A6.162,6.162,0,0,0,6.011,30c2.284,0,4.6-1.148,6.855-2.27a25.363,25.363,0,0,1,4.974-2.054c.619-.153,1.255-.244,1.929-.342a10.69,10.69,0,0,0,3.942-1.1,5.454,5.454,0,0,0,2.665-3.782,5.63,5.63,0,0,0-.74-3.871,3.453,3.453,0,0,0,.509-1.809Zm-1.364,0a2.11,2.11,0,1,1-2.111-2.11,2.113,2.113,0,0,1,2.111,2.11Zm.48-13.407-3.4,10.029a3.432,3.432,0,0,0-.431.133L18.072,4.674,14.7,11.486a3.432,3.432,0,0,0-.449-.122l-3.389-10ZM13.574,12.66a2.11,2.11,0,1,1-2.11,2.11,2.113,2.113,0,0,1,2.11-2.11Zm-9.131.02a2.11,2.11,0,1,1-2.11,2.11,2.113,2.113,0,0,1,2.11-2.11Zm20.589,7.537a4.093,4.093,0,0,1-2,2.835,9.534,9.534,0,0,1-3.453.931c-.677.1-1.377.2-2.061.367a26.343,26.343,0,0,0-5.254,2.157c-3.39,1.684-6.317,3.138-9.077,1.225-2.022-1.4-1.929-3.994-1.693-5.415a13.735,13.735,0,0,1,1.379-3.7c.1-.2.195-.4.289-.6a3.444,3.444,0,0,0,.9.225,4.248,4.248,0,0,0,2.25,4.988l.262.135.278-.1A11.817,11.817,0,0,0,11,20.691a12.941,12.941,0,0,0,2.055-2.485,3.473,3.473,0,0,0,2.829-6.029l2.184-4.415,2.206,4.5a3.472,3.472,0,0,0,4.38,5.361,4.239,4.239,0,0,1,.38,2.595Z"/>
</svg>
