<svg id="next-js-seeklogo.com" xmlns="http://www.w3.org/2000/svg" width="40" height="24.132" viewBox="0 0 40 24.132">
  <path id="Path_147" data-name="Path 147" d="M9.438,6.294h7.544v.6H10.13v4.513h6.444v.6H10.13v4.955h6.931v.6H9.438Zm8.22,0h.8l3.552,4.955,3.631-4.955L30.581,0,22.468,11.769l4.181,5.791h-.833l-3.8-5.27-3.819,5.27h-.817l4.212-5.791Zm9.289.6v-.6h8.6v.6H31.584V17.561h-.692V6.893ZM0,6.294H.864l11.92,17.838L7.859,17.561.723,7.146.692,17.561H0ZM35.475,16.78a.251.251,0,1,1,.247-.251A.244.244,0,0,1,35.475,16.78Zm.68-.66h.37a.338.338,0,0,0,.367.335c.241,0,.377-.145.377-.416V14.321h.377v1.72a.7.7,0,0,1-.75.77A.678.678,0,0,1,36.155,16.12Zm1.983-.022h.373c.032.231.257.377.582.377.3,0,.525-.157.525-.372,0-.185-.141-.3-.463-.372l-.313-.076c-.439-.1-.639-.315-.639-.672,0-.433.353-.721.883-.721a.792.792,0,0,1,.875.7h-.367a.464.464,0,0,0-.513-.364c-.3,0-.5.143-.5.362,0,.173.128.273.444.347l.267.066c.5.116.7.318.7.684,0,.465-.36.756-.935.756C38.527,16.81,38.165,16.533,38.138,16.1Z"/>
</svg>
