<svg xmlns="http://www.w3.org/2000/svg" width="26.432" height="30" viewBox="0 0 26.432 30">
  <g id="icons8-shopify" transform="translate(-6.379 -4)">
    <path id="Path_169" data-name="Path 169" d="M29.507,9.835a.261.261,0,0,0-.263-.229c-.105,0-2.407-.175-2.407-.175s-1.6-1.6-1.792-1.757a.738.738,0,0,0-.65-.088c-.017,0-.352.106-.9.281-.544-1.565-1.476-2.988-3.146-2.988h-.158A2.046,2.046,0,0,0,18.646,4c-3.866,0-5.729,4.833-6.309,7.294-1.511.475-2.584.79-2.707.844-.844.263-.861.281-.967,1.072-.088.6-2.284,17.592-2.284,17.592l17.1,3.2,9.28-2C32.776,31.962,29.525,9.993,29.507,9.835ZM22.548,8.112c-.422.123-.932.281-1.441.457V8.253a6.749,6.749,0,0,0-.352-2.338c.878.106,1.423,1.073,1.792,2.2Zm-2.865-2a7.356,7.356,0,0,1,.387,2.6v.175c-.949.3-1.951.6-2.988.931.58-2.214,1.687-3.3,2.6-3.708Zm-1.125-1.09a.842.842,0,0,1,.492.176c-1.248.58-2.566,2.039-3.111,4.991-.826.263-1.617.492-2.372.738C14.2,8.675,15.781,5.019,18.557,5.019Z" fill="#7cb342"/>
    <path id="Path_170" data-name="Path 170" d="M34.961,10.748c-.106,0-2.407-.175-2.407-.175s-1.6-1.6-1.793-1.757a.343.343,0,0,0-.229-.106L29.249,35.178l9.28-2s-3.251-22-3.269-22.162A.477.477,0,0,0,34.961,10.748Z" transform="translate(-5.717 -1.178)" fill="#558b2f"/>
    <path id="Path_171" data-name="Path 171" d="M21.548,18.449l-1.106,3.337a5.2,5.2,0,0,0-2.2-.536c-1.781,0-1.867,1.123-1.867,1.4,0,1.521,3.976,2.109,3.976,5.687,0,2.818-1.781,4.633-4.184,4.633a5.758,5.758,0,0,1-4.356-1.8l.778-2.558a5.525,5.525,0,0,0,2.8,1.314,1.136,1.136,0,0,0,1.192-1.141c0-1.988-3.25-2.075-3.25-5.359,0-2.749,1.971-5.41,5.964-5.41A4.615,4.615,0,0,1,21.548,18.449Z" transform="translate(-1.359 -3.504)" fill="#fff"/>
  </g>
</svg>
